comic-neue-angular_bold-oblique.sfdir
StartChar: exclam
Encoding: 33 33 94
Width: 211
Flags: MW
HStem: -5 21G<-16 -16> 659 20G<233 233>
LayerCount: 2
Back
Fore
SplineSet
127 179 m 1
 29 160 l 1
 135 662 l 1
 233 679 l 1
 127 179 l 1
122 134 m 1
 86 12 l 1
 -16 -5 l 1
 20 117 l 1
 122 134 l 1
EndSplineSet
EndChar
StartChar: quotedbl
Encoding: 34 34 114
Width: 338
Flags: MW
HStem: 450 21G<80 80 229 229> 658 20G<224 224 373 373>
LayerCount: 2
Back
Fore
SplineSet
179 467 m 1
 80 450 l 1
 125 660 l 1
 224 678 l 1
 179 467 l 1
328 467 m 1
 229 450 l 1
 274 660 l 1
 373 678 l 1
 328 467 l 1
EndSplineSet
EndChar
StartChar: numbersign
Encoding: 35 35 86
Width: 777
Flags: MW
HStem: -2 21G<75 75 266 266> 193 94<88 172 41 220 318 363 88 270 509 605> 392 94<166 272 119 319 166 370 418 463 608 688> 658 20G<514 514>
LayerCount: 2
Back
Fore
SplineSet
688 392 m 1
 561 392 l 1
 509 287 l 1
 653 287 l 1
 605 193 l 1
 461 193 l 1
 367 5 l 1
 266 -2 l 1
 363 193 l 1
 270 193 l 1
 176 5 l 1
 75 -2 l 1
 172 193 l 1
 41 193 l 1
 88 287 l 1
 220 287 l 1
 272 392 l 1
 119 392 l 1
 166 486 l 1
 319 486 l 1
 412 671 l 1
 514 678 l 1
 418 486 l 1
 510 486 l 1
 602 670 l 1
 702 677 l 1
 608 486 l 1
 735 486 l 1
 688 392 l 1
411 287 m 1
 463 392 l 1
 370 392 l 1
 318 287 l 1
 411 287 l 1
EndSplineSet
EndChar
StartChar: dollar
Encoding: 36 36 101
Width: 631
Flags: MW
HStem: -73 21G<191 191> 713 20G<456 456>
VStem: 140 105<465 499.5 465 522.5> 427 105<183.5 230.5> 499 97<514.5 590>
LayerCount: 2
Back
Fore
SplineSet
422 573 m 1xe8
 383 387 l 1
 482 353 532 302 532 232 c 0xf0
 532 105 414 22 301 4 c 1
 289 -55 l 1
 191 -73 l 1
 207 3 l 1
 114 18 49 85 38 180 c 1
 142 196 l 1
 150 139 185 108 227 98 c 1
 273 314 l 1
 203 340 140 384 140 458 c 0
 140 587 268 647 347 659 c 1
 359 716 l 1
 456 733 l 1
 442 664 l 1
 506 658 596 635 596 545 c 0
 596 525 591 507 582 477 c 1
 482 458 l 1
 497 491 499 512 499 517 c 0
 499 549 465 567 422 573 c 1xe8
327 566 m 1
 291 555 245 523 245 476 c 0
 245 454 261 436 296 419 c 1
 327 566 l 1
322 102 m 1
 370 116 427 154 427 213 c 0
 427 248 398 267 361 283 c 1
 322 102 l 1
EndSplineSet
EndChar
StartChar: percent
Encoding: 37 37 96
Width: 754
Flags: MW
HStem: -7 94<455.5 483.5 455.5 493> 0 21G<68 170 68 68> 191 95<474.5 502> 384 94<242 270 242 279> 582 95<260 288.5>
VStem: 116 97<507.5 535 507.5 547> 318 97<524.5 552.5> 330 85 532 96<133 160.5>
LayerCount: 2
Back
Fore
SplineSet
234 384 m 0xbe80
 164 384 116 433 116 500 c 0
 116 594 207 677 296 677 c 0
 367 677 415 627 415 560 c 0
 415 466 324 384 234 384 c 0xbe80
276 582 m 0
 244 582 213 551 213 519 c 0
 213 496 230 478 254 478 c 0
 286 478 318 508 318 541 c 0
 318 564 301 582 276 582 c 0
448 -7 m 0
 377 -7 330 42 330 108 c 0xbd80
 330 202 419 286 510 286 c 0
 580 286 628 236 628 170 c 0
 628 75 538 -7 448 -7 c 0
490 191 m 0
 459 191 426 161 426 129 c 0
 426 105 443 87 468 87 c 0
 499 87 532 117 532 149 c 0
 532 172 514 191 490 191 c 0
580 672 m 1
 682 672 l 1
 170 0 l 1
 68 0 l 1x7e80
 580 672 l 1
EndSplineSet
EndChar
StartChar: ampersand
Encoding: 38 38 100
Width: 688
Flags: MW
HStem: -9 21G<473 473> -4 95<211.5 239> 579 94<347.5 378>
VStem: 41 96<142 203 142 212> 192 97<494.5 528 494.5 535> 416 95<518 544>
LayerCount: 2
Back
Fore
SplineSet
484 170 m 1x7c
 557 51 l 1
 473 -9 l 1xbc
 413 86 l 1
 348 24 266 -4 212 -4 c 0
 124 -4 41 54 41 149 c 0
 41 275 141 343 222 385 c 1
 207 412 192 449 192 489 c 0
 192 581 290 673 384 673 c 0
 456 673 511 615 511 549 c 0
 511 441 420 391 365 359 c 1
 432 252 l 1
 448 282 466 321 488 376 c 1
 547 286 l 1
 524 236 503 198 484 170 c 1x7c
364 579 m 0
 331 579 289 548 289 508 c 0
 289 481 303 451 318 430 c 1
 406 473 416 504 416 532 c 0
 416 556 392 579 364 579 c 0
232 91 m 0x7c
 265 91 322 115 366 160 c 1
 272 312 l 1
 206 280 137 237 137 169 c 0
 137 115 191 91 232 91 c 0x7c
EndSplineSet
EndChar
StartChar: quotesingle
Encoding: 39 39 113
Width: 228
Flags: MW
HStem: 450 21G<100 100> 658 20G<243 243>
LayerCount: 2
Back
Fore
SplineSet
198 467 m 1
 100 450 l 1
 145 660 l 1
 243 678 l 1
 198 467 l 1
EndSplineSet
EndChar
StartChar: parenleft
Encoding: 40 40 103
Width: 403
Flags: MW
HStem: -116 21G<177 177> 772 20G<393 393>
VStem: 63 98<193.5 327>
LayerCount: 2
Back
Fore
SplineSet
256 -48 m 1
 177 -116 l 1
 100 -24 63 107 63 229 c 0
 63 425 188 646 393 792 c 1
 434 718 l 1
 279 604 161 426 161 249 c 0
 161 138 196 24 256 -48 c 1
EndSplineSet
EndChar
StartChar: parenright
Encoding: 41 41 102
Width: 403
Flags: MW
HStem: -116 21G<32 32> 772 20G<248 248>
VStem: 264 97<350 484>
LayerCount: 2
Back
Fore
SplineSet
168 724 m 1
 248 792 l 1
 325 700 361 570 361 448 c 0
 361 252 238 30 32 -116 c 1
 -9 -42 l 1
 147 72 264 251 264 429 c 0
 264 539 228 652 168 724 c 1
EndSplineSet
EndChar
StartChar: asterisk
Encoding: 42 42 105
Width: 443
Flags: MW
HStem: 404 21G<199 199 279 279> 653 20G<250 345 345 345>
LayerCount: 2
Back
Fore
SplineSet
342 514 m 1
 369 460 l 1
 279 404 l 1
 251 459 l 1
 199 404 l 1
 134 460 l 1
 186 514 l 1
 125 535 l 1
 175 626 l 1
 235 605 l 1
 250 673 l 1
 345 673 l 1
 330 605 l 1
 400 626 l 1
 409 534 l 1
 342 514 l 1
EndSplineSet
EndChar
StartChar: plus
Encoding: 43 43 104
Width: 467
Flags: MW
HStem: 73 21G<136 136> 204 94<69 164 33 184 278 372 69 258> 406 20G<305 305>
LayerCount: 2
Back
Fore
SplineSet
410 298 m 1
 372 204 l 1
 258 204 l 1
 233 89 l 1
 136 73 l 1
 164 204 l 1
 33 204 l 1
 69 298 l 1
 184 298 l 1
 207 407 l 1
 305 426 l 1
 278 298 l 1
 410 298 l 1
EndSplineSet
EndChar
StartChar: comma
Encoding: 44 44 72
Width: 343
Flags: MW
HStem: -121 21G<75 75> 105 20G<135 135>
LayerCount: 2
Back
Fore
SplineSet
135 125 m 1
 222 69 l 1
 75 -121 l 1
 0 -73 l 1
 67 14 l 1
 30 37 l 1
 135 125 l 1
EndSplineSet
EndChar
StartChar: hyphen
Encoding: 45 45 112
Width: 468
Flags: MW
HStem: 203 94<85 360 48 398>
LayerCount: 2
Back
Fore
SplineSet
360 203 m 1
 48 203 l 1
 85 297 l 1
 398 297 l 1
 360 203 l 1
EndSplineSet
EndChar
StartChar: period
Encoding: 46 46 107
Width: 248
Flags: MW
HStem: -4 21G<-2 -2> 113 20G<154 154>
LayerCount: 2
Back
Fore
SplineSet
154 133 m 1
 116 12 l 1
 -2 -4 l 1
 38 118 l 1
 154 133 l 1
EndSplineSet
EndChar
StartChar: zero
Encoding: 48 48 54
Width: 640
Flags: MW
HStem: -3 96<229 308.5 229 320> 574 95<335.5 414>
VStem: 69 96<201 328 201 334.5> 478 95<338.5 466>
LayerCount: 2
Back
Fore
SplineSet
240 -3 m 0
 131 -3 69 96 69 225 c 0
 69 444 242 669 404 669 c 0
 512 669 573 571 573 443 c 0
 573 219 400 -3 240 -3 c 0
384 574 m 0
 287 574 165 413 165 243 c 0
 165 159 198 93 260 93 c 0
 357 93 478 254 478 423 c 0
 478 509 444 574 384 574 c 0
EndSplineSet
EndChar
StartChar: one
Encoding: 49 49 55
Width: 440
Flags: MW
HStem: 0 95<44 143 237 294 8 143> 674 20G<374 374>
LayerCount: 2
Back
Fore
SplineSet
237 95 m 1
 331 95 l 1
 294 0 l 1
 8 0 l 1
 44 95 l 1
 143 95 l 1
 231 479 l 1
 141 411 l 1
 92 481 l 1
 374 694 l 1
 237 95 l 1
EndSplineSet
EndChar
StartChar: two
Encoding: 50 50 56
Width: 550
Flags: MW
HStem: 0 95<124 401> 564 94<295.5 348>
VStem: 415 97<477 524.5>
LayerCount: 2
Back
Fore
SplineSet
124 95 m 1
 438 95 l 1
 401 0 l 1
 6 0 l 1
 15 47 l 2
 44 196 118 256 243 330 c 0
 363 401 415 452 415 502 c 0
 415 547 366 564 330 564 c 0
 253 564 172 475 161 461 c 1
 112 537 l 1
 148 574 241 658 350 658 c 0
 475 658 512 586 512 523 c 0
 512 404 391 317 278 251 c 0
 197 204 149 169 124 95 c 1
EndSplineSet
EndChar
StartChar: three
Encoding: 51 51 57
Width: 575
Flags: MW
HStem: -4 95<210 273 210 286> 320 93<234 234 234 262> 572 95<309.5 365>
VStem: 135 244<194 194> 379 98<192.5 265> 427 99<499.5 530>
LayerCount: 2
Back
Fore
SplineSet
526 535 m 0xf4
 526 464 469 411 410 374 c 1
 449 345 477 304 477 248 c 0xe8
 477 118 354 -4 218 -4 c 0
 131 -4 47 46 36 156 c 1
 135 194 l 1
 139 128 182 91 238 91 c 0
 308 91 379 154 379 231 c 0
 379 299 305 320 219 320 c 1
 234 413 l 1
 345 419 427 463 427 516 c 0
 427 544 395 572 335 572 c 0
 277 572 208 520 193 508 c 1
 143 577 l 1
 174 601 264 667 355 667 c 0
 456 667 526 610 526 535 c 0xf4
EndSplineSet
EndChar
StartChar: four
Encoding: 52 52 58
Width: 544
Flags: MW
HStem: -5 21G<257 257> 155 91 696 20G<504 504>
LayerCount: 2
Back
Fore
SplineSet
354 13 m 1
 257 -5 l 1
 291 152 l 1
 -6 158 l 1
 504 716 l 1
 403 243 l 1
 468 243 l 1
 430 150 l 1
 384 151 l 1
 354 13 l 1
186 246 m 1
 311 246 l 1
 349 424 l 1
 186 246 l 1
EndSplineSet
EndChar
StartChar: five
Encoding: 53 53 59
Width: 588
Flags: MW
HStem: 0 94<209 278 209 285> 392 94<322 345.5> 563 94<268 532 268 268>
VStem: 412 94<246.5 327>
LayerCount: 2
Back
Fore
SplineSet
210 0 m 0
 156 0 65 28 33 153 c 1
 127 191 l 1
 143 125 189 94 229 94 c 0
 327 94 412 198 412 295 c 0
 412 359 369 392 322 392 c 0
 273 392 215 356 178 312 c 1
 104 337 l 1
 204 657 l 1
 570 657 l 1
 532 563 l 1
 268 563 l 1
 238 464 l 1
 268 477 302 486 342 486 c 0
 452 486 506 402 506 309 c 0
 506 141 360 0 210 0 c 0
EndSplineSet
EndChar
StartChar: six
Encoding: 54 54 60
Width: 572
Flags: MW
HStem: -5 94<217.5 285.5 217.5 300> 354 93<310.5 319> 656 20G<447 447>
VStem: 46 95<148.5 203 148.5 282> 392 94<234 311.5>
LayerCount: 2
Back
Fore
SplineSet
447 676 m 1
 458 587 l 1
 378 557 291 498 237 434 c 1
 265 443 293 447 328 447 c 0
 347 447 486 442 486 299 c 0
 486 161 378 -5 222 -5 c 0
 98 -5 46 70 46 171 c 0
 46 393 227 590 447 676 c 1
161 300 m 1
 148 262 141 217 141 189 c 0
 141 108 193 89 242 89 c 0
 329 89 392 193 392 275 c 0
 392 348 330 354 308 354 c 0
 239 354 185 318 161 300 c 1
EndSplineSet
EndChar
StartChar: seven
Encoding: 55 55 61
Width: 527
Flags: MW
HStem: -8 21G<118 118> 565 94<142 426 138 598>
LayerCount: 2
Back
Fore
SplineSet
118 -8 m 1
 45 35 l 1
 426 565 l 1
 138 565 l 1
 142 659 l 1
 598 659 l 1
 118 -8 l 1
EndSplineSet
EndChar
StartChar: eight
Encoding: 56 56 62
Width: 573
Flags: MW
HStem: -3 96<208.5 264.5 208.5 284> 573 96<319 371>
VStem: 43 96<143 199.5> 136 99<463.5 504.5 463.5 517.5> 375 99<171 235.5> 425 97<493.5 535.5>
LayerCount: 2
Back
Fore
SplineSet
217 -3 m 0xe8
 110 -3 43 58 43 146 c 0xe8
 43 253 122 322 184 357 c 1
 156 379 136 406 136 449 c 0
 136 586 257 669 370 669 c 0
 464 669 522 616 522 537 c 0xd4
 522 450 465 395 411 364 c 1
 452 332 474 289 474 238 c 0
 474 104 351 -3 217 -3 c 0xe8
282 310 m 1
 221 286 139 247 139 164 c 0
 139 122 180 93 237 93 c 0
 292 93 375 130 375 210 c 0
 375 261 328 294 282 310 c 1
318 411 m 1
 382 437 425 464 425 519 c 0
 425 552 393 573 349 573 c 0
 289 573 235 530 235 479 c 0xd4
 235 448 265 428 318 411 c 1
EndSplineSet
EndChar
StartChar: nine
Encoding: 57 57 63
Width: 572
Flags: MW
HStem: -9 21G<126 126> 217 94<254 262> 576 93<291.5 354.5>
VStem: 86 96<353 429.5 353 455> 432 94<459.5 515>
LayerCount: 2
Back
Fore
SplineSet
126 -9 m 1
 114 78 l 1
 203 111 283 167 336 231 c 1
 307 222 280 217 244 217 c 0
 226 217 86 222 86 365 c 0
 86 545 231 669 352 669 c 0
 475 669 526 596 526 495 c 0
 526 237 290 48 126 -9 c 1
410 364 m 1
 425 402 432 445 432 474 c 0
 432 556 379 576 330 576 c 0
 243 576 182 470 182 389 c 0
 182 317 244 311 264 311 c 0
 333 311 387 346 410 364 c 1
EndSplineSet
EndChar
StartChar: colon
Encoding: 58 58 71
Width: 276
Flags: MW
HStem: -4 21G<-1 -1> 434 20G<249 249>
LayerCount: 2
Back
Fore
SplineSet
249 454 m 1
 209 332 l 1
 92 317 l 1
 131 439 l 1
 249 454 l 1
154 133 m 1
 117 12 l 1
 -1 -4 l 1
 39 118 l 1
 154 133 l 1
EndSplineSet
EndChar
StartChar: semicolon
Encoding: 59 59 111
Width: 358
Flags: MW
HStem: -121 21G<75 75> 436 20G<313 313>
LayerCount: 2
Back
Fore
SplineSet
313 456 m 1
 274 334 l 1
 156 319 l 1
 196 441 l 1
 313 456 l 1
134 124 m 1
 222 68 l 1
 75 -121 l 1
 0 -73 l 1
 68 14 l 1
 30 37 l 1
 134 124 l 1
EndSplineSet
EndChar
StartChar: less
Encoding: 60 60 109
Width: 594
Flags: MW
HStem: -11 21G<380 380> 493 20G<510 510>
LayerCount: 2
Back
Fore
SplineSet
380 -11 m 1
 48 251 l 1
 510 513 l 1
 543 433 l 1
 218 249 l 1
 450 68 l 1
 380 -11 l 1
EndSplineSet
EndChar
StartChar: equal
Encoding: 61 61 90
Width: 531
Flags: MW
HStem: 113 93<72 395 36 431> 292 94<111 433 74 470>
LayerCount: 2
Back
Fore
SplineSet
433 292 m 1
 74 292 l 1
 111 386 l 1
 470 386 l 1
 433 292 l 1
395 113 m 1
 36 113 l 1
 72 206 l 1
 431 206 l 1
 395 113 l 1
EndSplineSet
EndChar
StartChar: greater
Encoding: 62 62 65
Width: 594
Flags: MW
HStem: -10 21G<56 56> 492 20G<186 186>
LayerCount: 2
Back
Fore
SplineSet
56 -10 m 1
 23 69 l 1
 346 252 l 1
 116 435 l 1
 186 512 l 1
 518 251 l 1
 56 -10 l 1
EndSplineSet
EndChar
StartChar: question
Encoding: 63 63 108
Width: 568
Flags: MW
HStem: -5 21G<80 80> 599 95<303.5 375.5>
VStem: 437 97<479 538.5>
LayerCount: 2
Back
Fore
SplineSet
215 124 m 1
 181 12 l 1
 80 -5 l 1
 113 107 l 1
 215 124 l 1
358 694 m 0
 471 694 534 636 534 543 c 0
 534 410 436 340 369 290 c 2
 182 149 l 1
 152 235 l 1
 322 362 l 2
 376 402 437 442 437 516 c 0
 437 561 410 599 341 599 c 0
 255 599 179 507 170 495 c 1
 114 566 l 1
 147 603 249 694 358 694 c 0
EndSplineSet
EndChar
StartChar: at
Encoding: 64 64 85
Width: 854
Flags: MW
HStem: -86 93<315 402.5 315 411.5> 85 95<548.5 599 548.5 611> 98 94<326.5 335> 341 94<390.5 424> 512 95<395.5 541.5>
VStem: 62 96<137 285.5 137 301.5> 212 97<211.5 249 211.5 255> 666 96<296.5 381.5>
LayerCount: 2
Back
Fore
SplineSet
362 7 m 0xdf
 443 7 501 42 537 61 c 1
 620 18 l 1
 606 7 481 -86 342 -86 c 0
 176 -86 62 30 62 184 c 0
 62 419 282 607 498 607 c 0
 656 607 762 502 762 354 c 0
 762 217 677 85 545 85 c 0xdf
 497 85 447 112 427 146 c 1
 394 118 356 98 314 98 c 0
 251 98 212 133 212 197 c 0
 212 313 321 435 436 435 c 0
 473 435 503 431 542 397 c 1
 470 321 l 1
 445 341 432 341 416 341 c 0
 365 341 309 277 309 221 c 0
 309 202 319 192 334 192 c 0xbf
 372 192 429 272 450 304 c 1
 529 272 l 1
 512 237 511 231 511 220 c 0
 511 197 531 180 566 180 c 0
 632 180 666 259 666 334 c 0
 666 429 606 512 477 512 c 0
 314 512 158 371 158 200 c 0
 158 74 268 7 362 7 c 0xdf
EndSplineSet
EndChar
StartChar: B
Encoding: 66 66 28
Width: 628
Flags: MW
HStem: 0 96<6 173> 309 96<168 296 189 296 296 316> 584 97<227 227 227 350>
VStem: 456 98<172.5 263>
LayerCount: 2
Back
Fore
SplineSet
6 0 m 1
 150 681 l 1
 370 681 l 2
 491 681 559 628 559 538 c 0
 559 466 524 412 462 374 c 1
 510 357 554 309 554 244 c 0
 554 39 254 0 92 0 c 2
 6 0 l 1
168 309 m 1
 123 96 l 1
 223 96 456 115 456 230 c 0
 456 296 369 309 316 309 c 2
 168 309 l 1
227 584 m 1
 189 405 l 1
 296 405 l 2
 363 405 459 427 459 515 c 0
 459 550 437 584 350 584 c 2
 227 584 l 1
EndSplineSet
EndChar
StartChar: C
Encoding: 67 67 29
Width: 657
Flags: MW
HStem: -1 96<254 331.5> 502 163<546 600 511 635> 585 96<346.5 439.5>
VStem: 48 97<208 306.5>
LayerCount: 2
Back
Fore
SplineSet
279 -1 m 0xb0
 144 -1 48 95 48 229 c 0
 48 384 225 681 435 681 c 0xb0
 475 681 512 667 543 651 c 1
 546 665 l 1
 635 665 l 1
 600 502 l 1
 511 502 l 1xd0
 519 539 l 1
 502 561 469 585 410 585 c 0
 283 585 145 362 145 253 c 0
 145 163 208 95 300 95 c 0
 379 95 456 140 514 221 c 1
 571 149 l 1
 494 56 384 -1 279 -1 c 0xb0
EndSplineSet
EndChar
StartChar: F
Encoding: 70 70 52
Width: 531
Flags: MW
HStem: -5 21G<-2 -2> 295 100<182 464 161 502> 582 99<222 571 222 222>
LayerCount: 2
Back
Fore
SplineSet
571 582 m 1
 222 582 l 1
 182 395 l 1
 502 395 l 1
 464 295 l 1
 161 295 l 1
 101 12 l 1
 -2 -5 l 1
 144 681 l 1
 610 681 l 1
 571 582 l 1
EndSplineSet
EndChar
StartChar: G
Encoding: 71 71 32
Width: 770
Flags: MW
HStem: -2 97<252 368.5 252 402.5> 220 96 586 96<366 494.5>
VStem: 601 99<430 449>
LayerCount: 2
Back
Fore
SplineSet
694 299 m 1
 672 197 l 1
 660 202 648 207 634 210 c 1
 601 142 505 -2 300 -2 c 0
 153 -2 65 104 65 252 c 0
 65 457 244 682 463 682 c 0
 616 682 695 587 700 449 c 1
 601 430 l 1
 597 524 546 586 443 586 c 0
 289 586 190 424 172 341 c 0
 148 237 183 95 321 95 c 0
 416 95 491 141 538 220 c 1
 486 218 416 202 364 182 c 1
 387 288 l 1
 447 306 513 316 569 316 c 0
 608 316 651 310 694 299 c 1
EndSplineSet
EndChar
StartChar: H
Encoding: 72 72 33
Width: 709
Flags: MW
HStem: -9 21G<5 5 468 468> 666 20G<251 251 714 714>
LayerCount: 2
Back
Fore
SplineSet
611 668 m 1
 714 686 l 1
 574 25 l 1
 468 -9 l 1
 538 322 l 1
 163 270 l 1
 111 25 l 1
 5 -9 l 1
 148 668 l 1
 251 686 l 1
 184 370 l 1
 559 422 l 1
 611 668 l 1
EndSplineSet
EndChar
StartChar: I
Encoding: 73 73 34
Width: 463
Flags: MW
HStem: 0 99<31 143 242 327 -7 143> 582 99<154 245 116 489 344 450 344 344>
LayerCount: 2
Back
Fore
SplineSet
450 582 m 1
 344 582 l 1
 242 99 l 1
 366 99 l 1
 327 0 l 1
 -7 0 l 1
 31 99 l 1
 143 99 l 1
 245 582 l 1
 116 582 l 1
 154 681 l 1
 489 681 l 1
 450 582 l 1
EndSplineSet
EndChar
StartChar: J
Encoding: 74 74 35
Width: 495
Flags: MW
HStem: 1 94<172.5 221.5 172.5 230.5> 579 100<262 385 241 552 484 531 484 484>
VStem: 22 101<139.5 143>
LayerCount: 2
Back
Fore
SplineSet
262 679 m 1
 552 679 l 1
 531 579 l 1
 484 579 l 1
 397 174 l 2
 375 72 286 1 175 1 c 0
 81 1 22 57 22 137 c 0
 22 149 23 161 26 174 c 2
 38 226 l 1
 140 244 l 1
 125 174 l 2
 124 168 123 163 123 158 c 0
 123 121 150 95 195 95 c 0
 248 95 288 129 298 174 c 2
 385 579 l 1
 241 579 l 1
 262 679 l 1
EndSplineSet
EndChar
StartChar: K
Encoding: 75 75 36
Width: 603
Flags: MW
HStem: -9 21G 669 20G<551 551>
LayerCount: 2
Back
Fore
SplineSet
506 68 m 1
 430 -9 l 1
 153 242 l 1
 104 12 l 1
 4 -5 l 1
 147 668 l 1
 247 686 l 1
 194 435 l 1
 551 689 l 1
 598 616 l 1
 207 337 l 1
 506 68 l 1
EndSplineSet
EndChar
StartChar: L
Encoding: 76 76 37
Width: 513
Flags: MW
HStem: -2 21G<3 3> 13 103 663 20G<248 248>
LayerCount: 2
Back
Fore
SplineSet
3 -2 m 1
 145 665 l 1
 248 683 l 1
 125 104 l 1
 447 128 l 1
 431 29 l 1
 3 -2 l 1
EndSplineSet
EndChar
StartChar: M
Encoding: 77 77 38
Width: 891
Flags: MW
HStem: -6 21G<-12 -12> 665 20G<361 361 762 762>
VStem: 292 87 660 102<13 467 467 467>
LayerCount: 2
Back
Fore
SplineSet
276 446 m 1
 92 12 l 1
 -12 -6 l 1
 273 669 l 1
 361 685 l 1
 398 166 l 1
 667 670 l 1
 762 685 l 1
 762 13 l 1
 660 -4 l 1
 660 467 l 1
 417 11 l 1
 309 -3 l 1
 276 446 l 1
EndSplineSet
EndChar
StartChar: N
Encoding: 78 78 39
Width: 641
Flags: MW
HStem: -4 21G<6 6> 666 20G<649 649>
LayerCount: 2
Back
Fore
SplineSet
549 668 m 1
 649 686 l 1
 507 16 l 1
 409 -3 l 1
 206 489 l 1
 106 15 l 1
 6 -4 l 1
 146 660 l 1
 239 685 l 1
 447 184 l 1
 549 668 l 1
EndSplineSet
EndChar
StartChar: O
Encoding: 79 79 40
Width: 686
Flags: MW
HStem: -2 95<238.5 333 238.5 344.5> 587 95<358 454>
VStem: 59 98<205.5 340.5 205.5 348> 538 100<336.5 466>
LayerCount: 2
Back
Fore
SplineSet
256 -2 m 0
 132 -2 59 99 59 232 c 0
 59 464 265 682 440 682 c 0
 563 682 638 581 638 448 c 0
 638 215 433 -2 256 -2 c 0
414 587 m 0
 302 587 157 430 157 251 c 0
 157 160 201 93 276 93 c 0
 390 93 538 252 538 421 c 0
 538 511 494 587 414 587 c 0
EndSplineSet
EndChar
StartChar: P
Encoding: 80 80 41
Width: 571
Flags: MW
HStem: -5 21G<3 3> 223 98<150 171> 580 99<226 340 226 340>
VStem: 471 103<439 508>
LayerCount: 2
Back
Fore
SplineSet
150 223 m 1
 105 12 l 1
 3 -5 l 1
 148 673 l 1
 178 675 244 679 277 679 c 0
 403 679 574 655 574 510 c 0
 574 310 335 234 150 223 c 1
226 580 m 1
 171 321 l 1
 361 336 471 398 471 480 c 0
 471 536 420 580 246 580 c 2
 226 580 l 1
EndSplineSet
EndChar
StartChar: Q
Encoding: 81 81 42
Width: 747
Flags: MW
HStem: -42 21G<574 574> -1 96<256.5 308.5> 582 97<375.5 487>
VStem: 53 105<209.5 342.5 209.5 353.5> 589 106<376 455.5>
LayerCount: 2
Back
Fore
SplineSet
541 114 m 1
 634 42 l 1
 574 -42 l 1
 453 48 l 1
 397 17 337 -1 280 -1 c 0
 140 -1 53 102 53 239 c 0
 53 468 273 679 468 679 c 0
 609 679 695 575 695 438 c 0
 695 314 632 195 541 114 c 1
470 170 m 1
 535 229 589 319 589 409 c 0
 589 502 534 582 440 582 c 0
 311 582 158 428 158 257 c 0
 158 162 212 95 301 95 c 0
 327 95 349 100 375 111 c 1
 287 175 l 1
 388 230 l 1
 470 170 l 1
EndSplineSet
EndChar
StartChar: W
Encoding: 87 87 48
Width: 904
Flags: MW
HStem: -3 21G<148 148 496 496> 666 20G<961 961>
VStem: 486 90
LayerCount: 2
Back
Fore
SplineSet
961 686 m 1
 589 12 l 1
 496 -3 l 1
 476 474 l 1
 240 12 l 1
 148 -3 l 1
 94 667 l 1
 194 685 l 1
 234 198 l 1
 314 353 397 517 475 669 c 1
 567 685 l 1
 585 191 l 1
 848 668 l 1
 961 686 l 1
EndSplineSet
EndChar
StartChar: X
Encoding: 88 88 49
Width: 706
Flags: MW
HStem: -11 21G<51 51> 672 20G<665 665>
LayerCount: 2
Back
Fore
SplineSet
426 345 m 1
 595 54 l 1
 506 -10 l 1
 344 266 l 1
 51 -11 l 1
 -3 58 l 1
 299 345 l 1
 135 627 l 1
 224 691 l 1
 381 423 l 1
 665 692 l 1
 720 623 l 1
 426 345 l 1
EndSplineSet
EndChar
StartChar: Z
Encoding: 90 90 51
Width: 647
Flags: MW
HStem: 0 103<148 502> 578 103<176 509 137 636>
LayerCount: 2
Back
Fore
SplineSet
22 0 m 1
 2 77 l 1
 509 578 l 1
 137 578 l 1
 176 681 l 1
 636 681 l 1
 656 603 l 1
 148 103 l 1
 540 103 l 1
 502 0 l 1
 22 0 l 1
EndSplineSet
EndChar
StartChar: bracketleft
Encoding: 91 91 77
Width: 341
Flags: MW
HStem: -113 95<93 172> 683 95<242 356 242 242>
LayerCount: 2
Back
Fore
SplineSet
172 -113 m 1
 -22 -113 l 1
 168 778 l 1
 393 778 l 1
 356 683 l 1
 242 683 l 1
 93 -18 l 1
 211 -18 l 1
 172 -113 l 1
EndSplineSet
EndChar
StartChar: backslash
Encoding: 92 92 81
Width: 518
Flags: MW
HStem: 0 21G<325 433 325 325> 656 20G<98 205 205 205>
LayerCount: 2
Back
Fore
SplineSet
205 676 m 1
 433 0 l 1
 325 0 l 1
 98 676 l 1
 205 676 l 1
EndSplineSet
EndChar
StartChar: bracketright
Encoding: 93 93 76
Width: 341
Flags: MW
HStem: -113 95<6 120 6 194 -32 120> 683 95<189 269 152 384>
LayerCount: 2
Back
Fore
SplineSet
189 778 m 1
 384 778 l 1
 194 -113 l 1
 -32 -113 l 1
 6 -18 l 1
 120 -18 l 1
 269 683 l 1
 152 683 l 1
 189 778 l 1
EndSplineSet
EndChar
StartChar: asciicircum
Encoding: 94 94 127
Width: 526
Flags: MW
HStem: 644 21G<232 232> 834 20G<388 388>
LayerCount: 2
Back
Fore
SplineSet
232 644 m 1
 189 718 l 1
 388 854 l 1
 506 714 l 1
 428 645 l 1
 355 726 l 1
 232 644 l 1
EndSplineSet
EndChar
StartChar: underscore
Encoding: 95 95 95
Width: 502
Flags: MW
HStem: -49 94<-44 412 -79 449>
LayerCount: 2
Back
Fore
SplineSet
412 -49 m 1
 -79 -49 l 1
 -44 45 l 1
 449 45 l 1
 412 -49 l 1
EndSplineSet
EndChar
StartChar: grave
Encoding: 96 96 128
Width: 526
Flags: MW
HStem: 654 21G<374 374> 850 20G<355 355>
LayerCount: 2
Back
Fore
SplineSet
465 703 m 1
 374 654 l 1
 247 816 l 1
 355 870 l 1
 465 703 l 1
EndSplineSet
EndChar
StartChar: a
Encoding: 97 97 2
Width: 530
Flags: MW
HStem: -5 21G<293 293> 6 96<178 206.5> 417 95<270.5 332.5>
VStem: 33 100<167 239>
LayerCount: 2
Back
Fore
SplineSet
490 466 m 1x70
 393 13 l 1
 293 -5 l 1xb0
 302 34 l 1
 266 18 227 6 186 6 c 0
 93 6 33 69 33 166 c 0
 33 312 168 512 338 512 c 0
 392 512 444 492 490 466 c 1x70
323 417 m 0
 218 417 133 292 133 189 c 0
 133 145 151 102 205 102 c 0x70
 245 102 295 126 323 143 c 1
 382 404 l 1
 367 412 342 417 323 417 c 0
EndSplineSet
EndChar
StartChar: b
Encoding: 98 98 4
Width: 554
Flags: MW
HStem: -5 21G<101 106> 1 94<200.5 271 200.5 297> 395 96<329 352> 659 20G<247 247>
VStem: 395 96<255 332>
LayerCount: 2
Back
Fore
SplineSet
360 491 m 0xb8
 453 491 491 415 491 330 c 0
 491 180 388 1 206 1 c 0x78
 170 1 133 8 106 16 c 1
 101 -5 l 1
 9 12 l 1
 147 661 l 1
 247 679 l 1
 198 448 l 1
 243 476 298 491 360 491 c 0xb8
219 95 m 0
 323 95 395 193 395 310 c 0
 395 354 378 395 326 395 c 0
 242 395 177 346 164 287 c 2
 126 112 l 1
 146 105 182 95 219 95 c 0
EndSplineSet
EndChar
StartChar: c
Encoding: 99 99 5
Width: 533
Flags: MW
HStem: 0 93<223 240 223 254> 409 93<260 324>
VStem: 34 95<148 223 148 226.5>
LayerCount: 2
Back
Fore
SplineSet
240 93 m 0
 289 95 341 131 382 186 c 1
 439 114 l 1
 378 43 295 0 213 0 c 0
 111 0 34 74 34 174 c 0
 34 279 163 502 325 502 c 0
 390 502 442 470 474 411 c 1
 389 342 l 1
 373 386 341 409 307 409 c 0
 213 409 129 257 129 189 c 0
 129 107 206 93 240 93 c 0
EndSplineSet
EndChar
StartChar: d
Encoding: 100 100 6
Width: 552
Flags: MW
HStem: -5 21G<299 299> 5 90<167.5 200.5> 402 94<241 316> 664 20G<557 557>
VStem: 34 98<154.5 198.5 154.5 255>
LayerCount: 2
Back
Fore
SplineSet
455 667 m 1x78
 557 684 l 1
 399 12 l 1
 299 -5 l 1xb8
 310 47 l 1
 271 23 229 5 172 5 c 0
 74 5 34 78 34 163 c 0
 34 347 162 496 320 496 c 0
 350 496 382 488 411 479 c 1
 455 667 l 1x78
340 171 m 2
 388 376 l 1
 371 386 337 402 295 402 c 0
 158 402 132 222 132 175 c 0
 132 134 144 95 191 95 c 0x78
 269 95 335 149 340 171 c 2
EndSplineSet
EndChar
StartChar: e
Encoding: 101 101 7
Width: 553
Flags: MW
HStem: 0 92<230.5 268> 410 92<278 336>
LayerCount: 2
Back
Fore
SplineSet
236 0 m 0
 119 0 40 85 40 197 c 0
 40 357 189 502 342 502 c 0
 433 502 495 426 502 335 c 1
 146 158 l 1
 165 122 206 92 255 92 c 0
 296 92 343 115 391 156 c 1
 444 93 l 1
 375 33 300 0 236 0 c 0
137 247 m 1
 389 375 l 1
 375 396 349 410 323 410 c 0
 233 410 155 334 137 247 c 1
EndSplineSet
EndChar
StartChar: f
Encoding: 102 102 8
Width: 358
Flags: MW
HStem: -5 21G<27 27> 410 92<69 116 34 136 237 320 69 212> 582 95<330.5 376>
LayerCount: 2
Back
Fore
SplineSet
435 673 m 1
 376 582 l 1
 285 582 253 562 237 502 c 1
 360 502 l 1
 320 410 l 1
 212 410 l 1
 127 12 l 1
 27 -5 l 1
 116 410 l 1
 34 410 l 1
 69 502 l 1
 136 502 l 1
 169 630 243 677 373 677 c 0
 384 677 395 677 435 673 c 1
EndSplineSet
EndChar
StartChar: g
Encoding: 103 103 9
Width: 548
Flags: MW
HStem: -168 96<155 219.5> 10 94<182.5 217.5> 406 95<273 335> 492 20G<517 517>
VStem: 38 93<184 254.5>
LayerCount: 2
Back
Fore
SplineSet
517 512 m 1xd8
 406 39 l 2
 375 -94 284 -168 155 -168 c 0
 111 -168 56 -159 18 -150 c 1
 58 -56 l 1
 88 -64 135 -72 175 -72 c 0
 271 -72 301 9 309 42 c 1
 275 19 237 10 198 10 c 0
 101 10 38 79 38 182 c 0
 38 327 166 501 337 501 c 0xe8
 370 501 392 497 414 487 c 1
 416 497 l 1
 517 512 l 1xd8
389 386 m 1xd8
 373 397 348 406 322 406 c 0xe8
 224 406 131 312 131 209 c 0
 131 159 152 104 213 104 c 0
 266 104 335 137 363 266 c 2
 389 386 l 1xd8
EndSplineSet
EndChar
StartChar: h
Encoding: 104 104 3
Width: 530
Flags: MW
HStem: -5 21G<4 4 304 304> 407 98<336.5 346> 659 20G<247 247>
VStem: 369 97<330 362>
LayerCount: 2
Back
Fore
SplineSet
145 201 m 2
 105 12 l 1
 4 -5 l 1
 146 661 l 1
 247 679 l 1
 189 409 l 1
 241 463 306 505 367 505 c 0
 437 505 466 460 466 370 c 0
 466 290 419 72 404 12 c 1
 304 -5 l 1
 320 48 369 275 369 340 c 0
 369 384 358 407 334 407 c 0
 279 407 190 300 171 272 c 0
 158 253 151 227 145 201 c 2
EndSplineSet
EndChar
StartChar: i
Encoding: 105 105 10
Width: 247
Flags: MW
HStem: -5 21G<9 9> 657 20G<258 258>
LayerCount: 2
Back
Fore
SplineSet
114 489 m 1
 217 505 l 1
 112 12 l 1
 9 -5 l 1
 114 489 l 1
258 677 m 1
 224 555 l 1
 123 538 l 1
 158 660 l 1
 258 677 l 1
EndSplineSet
EndChar
StartChar: j
Encoding: 106 106 11
Width: 339
Flags: MW
HStem: -164 92<45.5 74 45.5 100.5> 664 20G<358 358>
LayerCount: 2
Back
Fore
SplineSet
358 684 m 1
 322 562 l 1
 221 546 l 1
 254 668 l 1
 358 684 l 1
-98 30 m 1
 1 50 l 1
 8 13 30 -72 61 -72 c 0
 87 -72 105 -31 116 18 c 0
 119 34 166 260 213 499 c 1
 313 517 l 1
 266 275 218 38 215 23 c 0
 198 -52 152 -164 49 -164 c 0
 -55 -164 -94 11 -98 30 c 1
EndSplineSet
EndChar
StartChar: k
Encoding: 107 107 12
Width: 520
Flags: MW
HStem: -11 21G<345 345> 659 20G<248 248>
LayerCount: 2
Back
Fore
SplineSet
512 484 m 1
 460 430 356 336 298 291 c 1
 434 54 l 1
 345 -11 l 1
 300 87 246 183 213 233 c 1
 146 193 l 1
 108 12 l 1
 6 -5 l 1
 147 662 l 1
 248 679 l 1
 168 300 l 1
 243 354 367 458 447 539 c 1
 512 484 l 1
EndSplineSet
EndChar
StartChar: l
Encoding: 108 108 13
Width: 252
Flags: MW
HStem: -5 21G<17 17> 659 20G<259 259>
LayerCount: 2
Back
Fore
SplineSet
159 661 m 1
 259 679 l 1
 117 12 l 1
 17 -5 l 1
 159 661 l 1
EndSplineSet
EndChar
StartChar: m
Encoding: 109 109 14
Width: 843
Flags: MW
HStem: -5 21G<11 11 309 309 584 584> 420 90<341 348.5 621 623.5>
VStem: 660 98<380 390>
LayerCount: 2
Back
Fore
SplineSet
178 289 m 0
 169 278 164 262 164 262 c 1
 111 12 l 1
 11 -5 l 1
 115 480 l 1
 214 497 l 1
 197 417 l 1
 255 471 313 510 369 510 c 0
 416 510 464 495 479 432 c 1
 533 479 598 510 644 510 c 0
 698 510 758 487 758 390 c 0
 758 370 756 346 750 319 c 2
 685 12 l 1
 584 -5 l 1
 655 326 l 2
 658 342 660 355 660 366 c 0
 660 414 632 420 615 420 c 0
 572 420 484 358 465 269 c 2
 410 12 l 1
 309 -5 l 1
 380 326 l 2
 383 342 385 355 385 366 c 0
 385 414 357 420 340 420 c 0
 308 420 253 381 178 289 c 0
EndSplineSet
EndChar
StartChar: n
Encoding: 110 110 15
Width: 562
Flags: MW
HStem: -5 21G<5 5 324 324> 406 95<340 365> 487 20G<210 210>
VStem: 389 98
LayerCount: 2
Back
Fore
SplineSet
324 -5 m 1xd0
 359 157 l 2
 377 239 389 300 389 343 c 0
 389 380 379 406 351 406 c 0xd0
 319 406 275 394 217 319 c 0
 179 266 144 193 131 135 c 2
 104 13 l 1
 5 -5 l 1
 110 489 l 1
 210 507 l 1xb0
 189 408 l 1
 240 464 307 501 373 501 c 0
 445 501 485 463 487 386 c 0
 488 326 470 249 446 127 c 2
 424 15 l 1
 324 -5 l 1xd0
EndSplineSet
EndChar
StartChar: p
Encoding: 112 112 17
Width: 544
Flags: MW
HStem: -180 21G<-33 -33> 6 97<205.5 275 205.5 291.5> 407 90<323 347> 484 20G<210 210>
VStem: 389 92<260.5 336.5>
LayerCount: 2
Back
Fore
SplineSet
355 497 m 0xe8
 443 497 481 418 481 336 c 0
 481 185 382 6 201 6 c 0
 165 6 133 13 107 22 c 1
 68 -164 l 1
 -33 -180 l 1
 109 486 l 1
 210 504 l 1xd8
 200 458 l 1
 249 481 291 497 355 497 c 0xe8
224 103 m 0
 326 103 389 207 389 313 c 0
 389 360 372 407 322 407 c 0
 252 407 198 366 175 343 c 1
 129 126 l 1
 150 117 187 103 224 103 c 0
EndSplineSet
EndChar
StartChar: q
Encoding: 113 113 18
Width: 549
Flags: MW
HStem: -183 21G<251 251> -9 93<190.5 223.5> 405 92<294.5 359.5> 489 20G<421 421>
VStem: 31 94<152 244 152 249>
LayerCount: 2
Back
Fore
SplineSet
372 497 m 0xe8
 386 497 402 496 417 494 c 1
 421 509 l 1xd8
 517 507 l 1
 350 -166 l 1
 251 -183 l 1
 299 14 l 1
 268 -3 246 -9 201 -9 c 0
 97 -9 31 63 31 162 c 0
 31 336 185 497 372 497 c 0xe8
339 172 m 2
 396 402 l 1
 380 404 366 405 353 405 c 0
 236 405 125 307 125 181 c 0
 125 123 162 84 219 84 c 0
 277 84 325 116 339 172 c 2
EndSplineSet
EndChar
StartChar: r
Encoding: 114 114 19
Width: 427
Flags: MW
HStem: -5 21G<2 2> 407 95<276.5 364.5> 487 20G<208 208>
LayerCount: 2
Back
Fore
SplineSet
420 415 m 2xc0
 407 356 l 1
 308 340 l 1
 315 365 318 380 318 390 c 0
 318 398 315 407 304 407 c 0xc0
 249 407 170 328 154 252 c 2
 103 12 l 1
 2 -5 l 1
 107 489 l 1
 208 507 l 1xa0
 193 435 l 1
 234 471 286 502 340 502 c 0
 389 502 422 472 422 431 c 0
 422 426 421 420 420 415 c 2xc0
EndSplineSet
EndChar
StartChar: s
Encoding: 115 115 20
Width: 486
Flags: MW
HStem: 0 91<179 209.5> 417 88<260 301.5>
VStem: 90 100<349 373 349 405.5> 299 99<139 172.5> 351 94<377.5 449>
LayerCount: 2
Back
Fore
SplineSet
221 219 m 0xf0
 157 237 90 268 90 338 c 0
 90 473 233 505 287 505 c 0
 366 505 445 488 445 410 c 0
 445 394 443 374 430 347 c 1
 333 329 l 1
 350 357 351 375 351 380 c 0xe8
 351 407 316 417 287 417 c 0
 217 417 190 386 190 360 c 0
 190 338 215 324 263 310 c 0
 354 283 398 242 398 184 c 0
 398 38 238 0 181 0 c 0
 96 0 23 55 17 151 c 1
 114 167 l 1
 119 116 158 91 200 91 c 0
 259 91 299 122 299 156 c 0
 299 189 264 206 221 219 c 0xf0
EndSplineSet
EndChar
StartChar: t
Encoding: 116 116 21
Width: 399
Flags: MW
HStem: -5 21G<85 85> 406 96<68 173 48 193 291 396 68 271> 640 20G<325 325>
LayerCount: 2
Back
Fore
SplineSet
416 502 m 1
 396 406 l 1
 271 406 l 1
 187 12 l 1
 85 -5 l 1
 173 406 l 1
 48 406 l 1
 68 502 l 1
 193 502 l 1
 223 644 l 1
 325 660 l 1
 291 502 l 1
 416 502 l 1
EndSplineSet
EndChar
StartChar: u
Encoding: 117 117 22
Width: 542
Flags: MW
HStem: -5 90<171 191> 489 20G<231 231>
VStem: 43 99<132 145.5>
LayerCount: 2
Back
Fore
SplineSet
162 286 m 0
 152 238 142 189 142 152 c 0
 142 112 153 85 189 85 c 0
 244 85 306 125 328 143 c 0
 333 147 336 155 339 167 c 2
 408 491 l 1
 510 508 l 1
 405 12 l 1
 300 -4 l 1
 308 36 l 1
 269 14 216 -5 166 -5 c 0
 70 -5 43 48 43 121 c 0
 43 170 55 229 67 286 c 0
 76 328 100 418 128 492 c 1
 231 509 l 1
 223 488 178 359 162 286 c 0
EndSplineSet
EndChar
StartChar: v
Encoding: 118 118 23
Width: 473
Flags: MW
HStem: -3 21G<133 133> 487 20G<145 145 412 412>
LayerCount: 2
Back
Fore
SplineSet
495 473 m 1
 219 15 l 1
 133 -3 l 1
 48 471 l 1
 145 507 l 1
 204 156 l 1
 412 507 l 1
 495 473 l 1
EndSplineSet
EndChar
StartChar: w
Encoding: 119 119 24
Width: 679
Flags: MW
HStem: -5 21G<78 78> 482 20G<183 183 687 687>
VStem: 81 99 335 91
LayerCount: 2
Back
Fore
SplineSet
687 502 m 1
 432 15 l 1
 340 -4 l 1
 331 296 l 1
 172 14 l 1
 78 -5 l 1
 84 481 l 1
 183 502 l 1
 178 196 l 1
 335 484 l 1
 424 499 l 1
 429 192 l 1
 579 485 l 1
 687 502 l 1
EndSplineSet
EndChar
StartChar: x
Encoding: 120 120 25
Width: 536
Flags: MW
HStem: -9 21G<368 368> 491 20G<165 165 496 496>
LayerCount: 2
Back
Fore
SplineSet
244 191 m 1
 13 -8 l 1
 -42 61 l 1
 197 261 l 1
 78 449 l 1
 165 511 l 1
 279 326 l 1
 496 511 l 1
 550 444 l 1
 327 256 l 1
 454 53 l 1
 368 -9 l 1
 244 191 l 1
EndSplineSet
EndChar
StartChar: y
Encoding: 121 121 26
Width: 526
Flags: MW
HStem: -187 21G<93 93> 488 20G<456 456>
LayerCount: 2
Back
Fore
SplineSet
456 508 m 1
 536 467 l 1
 93 -187 l 1
 14 -146 l 1
 166 78 l 1
 55 464 l 1
 150 507 l 1
 241 191 l 1
 456 508 l 1
EndSplineSet
EndChar
StartChar: z
Encoding: 122 122 27
Width: 479
Flags: MW
HStem: 0 96<131 356> 406 96<110 322 73 453>
LayerCount: 2
Back
Fore
SplineSet
356 0 m 1
 0 0 l 1
 -19 68 l 1
 322 406 l 1
 73 406 l 1
 110 502 l 1
 453 502 l 1
 471 435 l 1
 131 96 l 1
 393 96 l 1
 356 0 l 1
EndSplineSet
EndChar
StartChar: braceleft
Encoding: 123 123 83
Width: 400
Flags: MW
HStem: -115 94<247 269> 688 94<417 439>
VStem: 75 98<-36 36.5>
LayerCount: 2
Back
Fore
SplineSet
74 310 m 1
 89 379 l 1
 130 395 159 420 166 453 c 2
 202 625 l 2
 227 746 369 781 439 782 c 1
 417 688 l 1
 357 686 305 663 297 625 c 2
 261 454 l 2
 251 408 229 380 184 341 c 1
 198 320 216 296 216 258 c 0
 216 249 215 239 213 228 c 2
 175 49 l 2
 174 45 173 38 173 35 c 0
 173 5 204 -16 269 -21 c 1
 247 -115 l 1
 183 -113 75 -84 75 12 c 0
 75 22 77 33 79 44 c 2
 120 236 l 2
 121 241 121 245 121 250 c 0
 121 276 104 296 74 310 c 1
EndSplineSet
EndChar
StartChar: bar
Encoding: 124 124 93
Width: 281
Flags: MW
HStem: -69 21G<18 18> 717 20G<283 283>
LayerCount: 2
Back
Fore
SplineSet
115 -52 m 1
 18 -69 l 1
 185 719 l 1
 283 737 l 1
 115 -52 l 1
EndSplineSet
EndChar
StartChar: braceright
Encoding: 125 125 82
Width: 400
Flags: MW
HStem: -115 94<-32 -10> 762 20G<160 160>
VStem: 190 95<404 413> 234 97<630.5 702>
LayerCount: 2
Back
Fore
SplineSet
332 357 m 1xe0
 318 288 l 1
 276 272 248 247 241 214 c 2
 204 42 l 2
 178 -79 39 -114 -32 -115 c 1
 -10 -21 l 1
 49 -19 101 4 109 42 c 2
 146 213 l 2
 156 259 178 287 223 326 c 1
 208 347 190 371 190 408 c 0xe0
 190 418 192 428 194 439 c 2
 231 614 l 2
 233 622 234 629 234 632 c 0
 234 661 202 682 138 688 c 1
 160 782 l 1
 223 780 331 750 331 654 c 0xd0
 331 644 330 634 328 623 c 2
 287 431 l 2
 286 426 285 422 285 417 c 0
 285 391 303 371 332 357 c 1xe0
EndSplineSet
EndChar
StartChar: asciitilde
Encoding: 126 126 89
Width: 671
Flags: MW
HStem: 136 105<397.5 420.5 397.5 437.5> 261 105<201 233>
LayerCount: 2
Back
Fore
SplineSet
512 357 m 1
 592 314 l 1
 569 272 492 136 383 136 c 0
 315 136 289 174 268 214 c 0
 255 239 243 261 223 261 c 0
 176 261 130 172 124 157 c 1
 47 200 l 1
 84 275 157 366 245 366 c 0
 320 366 346 315 367 278 c 0
 379 257 389 241 406 241 c 0
 435 241 478 285 512 357 c 1
EndSplineSet
EndChar
StartChar: exclamdown
Encoding: 161 161 214
Width: 211
Flags: MW
HStem: -179 21G<-49 -49> 485 20G<200 200>
LayerCount: 2
Back
Fore
SplineSet
58 321 m 1
 157 340 l 1
 50 -163 l 1
 -49 -179 l 1
 58 321 l 1
62 366 m 1
 98 488 l 1
 200 505 l 1
 165 383 l 1
 62 366 l 1
EndSplineSet
EndChar
StartChar: cent
Encoding: 162 162 99
Width: 532
Flags: MW
HStem: -9 21G<149 149> 662 20G<399 399>
VStem: 53 95<266 297 266 318.5>
LayerCount: 2
Back
Fore
SplineSet
261 90 m 1
 244 22 l 1
 149 -9 l 1
 173 98 l 1
 92 128 53 189 53 261 c 0
 53 376 152 533 288 580 c 1
 304 648 l 1
 399 682 l 1
 377 588 l 1
 425 579 468 547 493 499 c 1
 408 430 l 1
 394 466 377 487 356 493 c 1
 330 383 281 185 281 185 c 1
 321 196 370 231 401 274 c 1
 456 203 l 1
 402 141 332 98 261 90 c 1
196 197 m 1
 264 476 l 1
 171 415 148 311 148 283 c 0
 148 249 163 218 196 197 c 1
EndSplineSet
EndChar
StartChar: sterling
Encoding: 163 163 98
Width: 790
Flags: MW
HStem: -11 21G<123 123> -9 94<456.5 479.5> 65 94<249.5 289> 298 94<115 200 115 202 77 200 297 297 297 504> 468 238 611 95<420 511.5>
VStem: 203 93 584 96<501 529>
LayerCount: 2
Back
Fore
SplineSet
575 189 m 1x5b
 665 177 l 1
 609 11 503 -9 456 -9 c 0x5b
 397 -9 355 16 306 52 c 0
 295 60 280 65 263 65 c 0
 236 65 193 47 123 -11 c 1
 76 64 l 1
 199 150 203 210 203 263 c 0
 203 273 203 284 202 298 c 1
 77 298 l 1
 115 392 l 1
 200 392 l 1
 217 600 330 706 499 706 c 0
 646 706 680 591 680 508 c 0
 680 494 679 482 678 471 c 1
 583 466 l 1
 584 475 584 483 584 492 c 0
 584 566 551 611 472 611 c 0
 368 611 302 541 296 392 c 1
 541 392 l 1
 504 298 l 1
 297 298 l 1
 298 283 298 275 298 265 c 0
 298 220 292 197 276 159 c 1
 289 159 l 2xb7
 327 159 357 145 381 124 c 0
 414 95 437 85 476 85 c 0
 517 85 550 120 575 189 c 1x5b
EndSplineSet
EndChar
StartChar: currency
Encoding: 164 164 119
Width: 526
Flags: MW
HStem: 37 21G<54 54> 83 92<215.5 228.5> 326 92<270.5 284> 448 20G<146 146 445 445>
VStem: 77 94<218 239> 327 94<268 284>
LayerCount: 2
Back
Fore
SplineSet
421 289 m 0
 421 247 406 209 380 171 c 1
 433 104 l 1
 354 38 l 1
 300 105 l 1
 273 91 243 83 214 83 c 0
 184 83 157 91 136 105 c 1
 54 37 l 1
 2 103 l 1
 85 171 l 1
 80 185 77 201 77 218 c 0
 77 260 95 298 120 333 c 1
 66 403 l 1
 146 468 l 1
 201 398 l 1
 228 412 256 418 285 418 c 0
 314 418 339 412 361 398 c 1
 445 468 l 1
 496 403 l 1
 413 334 l 1
 419 320 421 305 421 289 c 0
234 175 m 0
 280 175 327 218 327 267 c 0
 327 301 302 326 266 326 c 0
 219 326 171 284 171 235 c 0
 171 201 197 175 234 175 c 0
EndSplineSet
EndChar
StartChar: yen
Encoding: 165 165 80
Width: 611
Flags: MW
HStem: -5 21G<180 180> 112 94<101 205 64 225 320 422 101 300> 262 94<133 218 133 237 96 218 393 454> 652 20G<135 240 240 240 515 620 620 620>
LayerCount: 2
Back
Fore
SplineSet
237 262 m 1
 96 262 l 1
 133 356 l 1
 218 356 l 1
 135 672 l 1
 240 672 l 1
 314 391 l 1
 515 672 l 1
 620 672 l 1
 393 356 l 1
 492 356 l 1
 454 262 l 1
 332 262 l 1
 320 206 l 1
 460 206 l 1
 422 112 l 1
 300 112 l 1
 279 12 l 1
 180 -5 l 1
 205 112 l 1
 64 112 l 1
 101 206 l 1
 225 206 l 1
 237 262 l 1
EndSplineSet
EndChar
StartChar: section
Encoding: 167 167 122
Width: 501
Flags: MW
HStem: 0 94<184 247.5 184 254> 541 90<300 343.5>
VStem: 102 83<337.5 360.5> 128 96<477.5 507.5 477.5 536> 306 96<155 172.5> 347 82<308 325.5> 381 48 381 97<504 561>
LayerCount: 2
Back
Fore
SplineSet
334 275 m 1xe4
 346 291 347 304 347 312 c 0
 347 339 316 358 200 390 c 1
 187 378 185 368 185 356 c 0
 185 319 229 312 257 304 c 0
 287 294 314 287 334 275 c 1xe4
459 458 m 1
 371 472 l 1
 378 489 381 499 381 509 c 0
 381 526 368 541 319 541 c 0
 263 541 224 523 224 492 c 0
 224 463 267 450 293 441 c 0
 368 416 429 394 429 319 c 0xd2
 429 291 421 253 397 220 c 1
 400 210 402 197 402 184 c 0
 402 100 319 0 189 0 c 0
 74 0 33 95 33 146 c 0
 33 151 33 156 34 160 c 2
 122 172 l 1
 130 123 160 94 208 94 c 0
 287 94 306 149 306 161 c 0
 306 184 285 200 228 220 c 0
 146 248 102 285 102 342 c 0xe8
 102 379 117 413 136 434 c 1
 131 445 128 458 128 472 c 0
 128 600 263 631 337 631 c 0
 434 631 478 589 478 533 c 0xd1
 478 515 478 506 459 458 c 1
EndSplineSet
EndChar
StartChar: dieresis
Encoding: 168 168 123
Width: 526
Flags: MW
HStem: 516 21G<159 159 325 325> 632 20G<315 315 480 480>
LayerCount: 2
Back
Fore
SplineSet
315 652 m 1
 277 531 l 1
 159 516 l 1
 199 638 l 1
 315 652 l 1
480 652 m 1
 442 531 l 1
 325 516 l 1
 364 638 l 1
 480 652 l 1
EndSplineSet
EndChar
StartChar: copyright
Encoding: 169 169 68
Width: 602
Flags: MW
HStem: 177 88<236 332.5 236 340.5> 318 80<294 317> 501 79<316.5 343> 630 88<300.5 397.5>
VStem: 46 89<366.5 466 366.5 476> 183 83<423 452.5 423 468> 498 90<427 527>
LayerCount: 2
Back
Fore
SplineSet
259 177 m 0
 133 177 46 268 46 389 c 0
 46 563 211 718 374 718 c 0
 501 718 588 626 588 503 c 0
 588 330 422 177 259 177 c 0
355 630 m 0
 246 630 135 525 135 407 c 0
 135 326 194 265 278 265 c 0
 387 265 498 368 498 486 c 0
 498 568 440 630 355 630 c 0
287 318 m 0
 225 318 183 363 183 420 c 0
 183 516 268 580 353 580 c 0
 383 580 417 567 447 526 c 1
 380 475 l 1
 369 494 350 501 336 501 c 0
 297 501 266 471 266 434 c 0
 266 412 284 398 304 398 c 0
 333 398 352 412 373 440 c 1
 446 419 l 1
 406 357 347 318 287 318 c 0
EndSplineSet
EndChar
StartChar: ordfeminine
Encoding: 170 170 212
Width: 276
Flags: MW
HStem: 315 21G<188 188> 326 90<109.5 168.5> 571 90<196 226>
VStem: 37 93<442 479.5 442 490.5>
LayerCount: 2
Back
Fore
SplineSet
345 626 m 1x70
 283 333 l 1
 188 315 l 1xb0
 192 334 l 1
 174 328 158 326 143 326 c 0
 76 326 37 370 37 435 c 0
 37 546 135 661 240 661 c 0
 265 661 311 651 345 626 c 1x70
243 568 m 1
 236 570 231 571 221 571 c 0
 171 571 130 505 130 454 c 0
 130 430 141 416 160 416 c 0x70
 177 416 198 426 213 433 c 1
 243 568 l 1
EndSplineSet
EndChar
StartChar: guillemotleft
Encoding: 171 171 87
Width: 635
Flags: MW
HStem: 51 21G<214 214 441 441> 437 20G<320 320 546 546>
LayerCount: 2
Back
Fore
SplineSet
214 51 m 1
 36 253 l 1
 320 457 l 1
 366 386 l 1
 178 250 l 1
 294 121 l 1
 214 51 l 1
441 51 m 1
 262 253 l 1
 546 457 l 1
 592 386 l 1
 405 250 l 1
 520 121 l 1
 441 51 l 1
EndSplineSet
EndChar
StartChar: logicalnot
Encoding: 172 172 213
Width: 542
Flags: MW
HStem: 96 21G<326 326> 241 92<94 358 58 469>
LayerCount: 2
Back
Fore
SplineSet
326 96 m 1
 358 241 l 1
 58 241 l 1
 94 333 l 1
 469 333 l 1
 424 125 l 1
 326 96 l 1
EndSplineSet
EndChar
StartChar: uni00AD
Encoding: 173 173 130
Width: 468
Flags: MW
HStem: 206 95<85 360 48 398>
LayerCount: 2
Back
Fore
SplineSet
398 301 m 1
 360 206 l 1
 48 206 l 1
 85 301 l 1
 398 301 l 1
EndSplineSet
EndChar
StartChar: registered
Encoding: 174 174 79
Width: 602
Flags: MW
HStem: 177 88<236 332.5 236 340.5> 630 88<300.5 397.5>
VStem: 46 89<366.5 466 366.5 476> 498 90<427 527>
LayerCount: 2
Back
Fore
SplineSet
259 177 m 0
 133 177 46 268 46 389 c 0
 46 563 211 718 374 718 c 0
 501 718 588 626 588 503 c 0
 588 330 422 177 259 177 c 0
355 630 m 0
 246 630 135 525 135 407 c 0
 135 326 194 265 278 265 c 0
 387 265 498 368 498 486 c 0
 498 568 440 630 355 630 c 0
373 425 m 1
 427 382 l 1
 360 323 l 1
 276 391 l 1
 255 338 l 1
 172 331 l 1
 250 541 l 2
 259 566 264 583 350 583 c 0
 421 583 460 558 460 516 c 0
 460 469 418 440 373 425 c 1
EndSplineSet
EndChar
StartChar: macron
Encoding: 175 175 215
Width: 526
Flags: MW
HStem: 534 94<200 439 163 476>
LayerCount: 2
Back
Fore
SplineSet
439 534 m 1
 163 534 l 1
 200 628 l 1
 476 628 l 1
 439 534 l 1
EndSplineSet
EndChar
StartChar: degree
Encoding: 176 176 70
Width: 293
Flags: MW
HStem: 455 86<187 216 187 225> 655 87<207 237>
VStem: 65 89<573.5 604 573.5 614.5> 270 89<591.5 622>
LayerCount: 2
Back
Fore
SplineSet
181 455 m 0
 112 455 65 503 65 568 c 0
 65 661 154 742 242 742 c 0
 311 742 359 693 359 628 c 0
 359 536 269 455 181 455 c 0
224 655 m 0
 190 655 154 622 154 586 c 0
 154 561 174 541 200 541 c 0
 232 541 270 574 270 609 c 0
 270 635 250 655 224 655 c 0
EndSplineSet
EndChar
StartChar: plusminus
Encoding: 177 177 216
Width: 461
Flags: MW
HStem: 0 93<1 347 38 311> 246 94<78 170 42 190 284 375 78 264> 445 20G<310 310>
LayerCount: 2
Back
Fore
SplineSet
1 0 m 1
 38 93 l 1
 347 93 l 1
 311 0 l 1
 1 0 l 1
414 340 m 1
 375 246 l 1
 264 246 l 1
 240 134 l 1
 142 117 l 1
 170 246 l 1
 42 246 l 1
 78 340 l 1
 190 340 l 1
 213 447 l 1
 310 465 l 1
 284 340 l 1
 414 340 l 1
EndSplineSet
EndChar
StartChar: twosuperior
Encoding: 178 178 217
Width: 263
Flags: MW
HStem: 399 87<140 276> 705 87<215 234.5>
VStem: 253 88<676 691.5>
LayerCount: 2
Back
Fore
SplineSet
203 538 m 0
 171 519 152 507 140 486 c 1
 308 486 l 1
 276 399 l 1
 27 399 l 1
 36 442 l 2
 54 527 96 566 171 610 c 0
 228 643 253 667 253 685 c 0
 253 698 241 705 228 705 c 0
 202 705 171 687 131 638 c 1
 85 708 l 1
 123 752 186 792 240 792 c 0
 319 792 341 745 341 704 c 0
 341 631 262 571 203 538 c 0
EndSplineSet
EndChar
StartChar: threesuperior
Encoding: 179 179 218
Width: 262
Flags: MW
HStem: 398 87<162.5 188.5 162.5 194> 574 62<150 153 140 166.5> 703 86<216 237>
VStem: 44 92<511 538.5> 227 88<520.5 544> 252 89<690 695>
LayerCount: 2
Back
Fore
SplineSet
141 661 m 1xf4
 95 724 l 1
 128 752 182 789 236 789 c 0
 298 789 341 754 341 706 c 0xf4
 341 674 315 634 275 617 c 1
 296 605 315 575 315 544 c 0
 315 467 233 398 155 398 c 0
 110 398 50 422 44 511 c 1
 137 547 l 2
 136 543 136 540 136 537 c 0
 136 503 151 485 174 485 c 0
 203 485 227 507 227 534 c 0xf8
 227 554 205 574 153 574 c 2
 140 574 l 1
 150 636 l 1
 183 636 252 664 252 691 c 0
 252 699 244 703 230 703 c 0
 202 703 176 691 141 661 c 1xf4
EndSplineSet
EndChar
StartChar: acute
Encoding: 180 180 136
Width: 526
Flags: MW
HStem: 510 21G<248 248> 691 20G<393 393>
LayerCount: 2
Back
Fore
SplineSet
190 570 m 1
 393 711 l 1
 461 638 l 1
 248 510 l 1
 190 570 l 1
EndSplineSet
EndChar
StartChar: mu
Encoding: 181 181 220
Width: 541
Flags: MW
HStem: -163 21G<100 100> -5 90<172 190> 490 20G<230 230>
LayerCount: 2
Back
Fore
SplineSet
67 288 m 0
 84 368 115 461 126 493 c 1
 230 510 l 1
 222 489 184 393 168 317 c 0
 151 239 143 185 143 149 c 0
 143 101 158 85 186 85 c 0
 241 85 307 125 327 144 c 0
 332 147 336 159 338 168 c 2
 407 492 l 1
 510 509 l 1
 404 13 l 1
 299 -3 l 1
 307 37 l 1
 269 15 215 -5 165 -5 c 0
 150 -5 133 -4 120 0 c 1
 100 -163 l 1
 8 -146 l 1
 11 -111 47 195 67 288 c 0
EndSplineSet
EndChar
StartChar: paragraph
Encoding: 182 182 106
Width: 585
Flags: MW
HStem: -75 21G<269 269> 743 20G<456 456>
LayerCount: 2
Back
Fore
SplineSet
451 666 m 1
 430 665 l 1
 411 564 355 301 205 -67 c 1
 117 -74 l 1
 181 83 227 212 259 317 c 1
 179 320 81 341 81 451 c 0
 81 637 289 734 456 763 c 1
 451 666 l 1
508 713 m 1
 593 720 l 1
 587 673 545 391 358 -67 c 1
 269 -75 l 1
 461 392 497 663 508 713 c 1
EndSplineSet
EndChar
StartChar: periodcentered
Encoding: 183 183 221
Width: 526
Flags: MW
HStem: 185 21G<172 172> 301 20G<327 327>
LayerCount: 2
Back
Fore
SplineSet
327 321 m 1
 290 200 l 1
 172 185 l 1
 212 306 l 1
 327 321 l 1
EndSplineSet
EndChar
StartChar: cedilla
Encoding: 184 184 140
Width: 526
Flags: MW
HStem: -196 57<161 176.5 161 185> 1 20G<208 208>
VStem: 201 69<-119 -103.5>
LayerCount: 2
Back
Fore
SplineSet
117 -54 m 1
 157 17 l 1
 208 21 l 1
 194 -33 l 1
 239 -37 270 -54 270 -94 c 0
 270 -159 214 -196 156 -196 c 0
 125 -196 105 -186 88 -157 c 1
 139 -123 l 1
 143 -132 154 -139 168 -139 c 0
 185 -139 201 -128 201 -110 c 0
 201 -97 192 -90 174 -90 c 0
 167 -90 156 -93 150 -98 c 1
 117 -54 l 1
EndSplineSet
EndChar
StartChar: onesuperior
Encoding: 185 185 219
Width: 205
Flags: MW
HStem: 413 87<29 116 65 116 203 224> 834 20G<284 284>
LayerCount: 2
Back
Fore
SplineSet
29 413 m 1
 65 500 l 1
 116 500 l 1
 153 655 l 1
 122 632 l 1
 78 697 l 1
 284 854 l 1
 203 500 l 1
 257 500 l 1
 224 413 l 1
 29 413 l 1
EndSplineSet
EndChar
StartChar: ordmasculine
Encoding: 186 186 222
Width: 311
Flags: MW
HStem: 324 87<160 191.5 160 201> 577 88<202.5 234.5>
VStem: 40 93<445.5 490 445.5 501.5> 261 95<493.5 536.5>
LayerCount: 2
Back
Fore
SplineSet
153 324 m 0
 80 324 40 377 40 444 c 0
 40 559 146 665 244 665 c 0
 312 665 356 610 356 542 c 0
 356 430 249 324 153 324 c 0
222 577 m 0
 183 577 133 520 133 460 c 0
 133 431 148 411 172 411 c 0
 211 411 261 465 261 522 c 0
 261 551 247 577 222 577 c 0
EndSplineSet
EndChar
StartChar: guillemotright
Encoding: 187 187 88
Width: 635
Flags: MW
HStem: 50 21G<303 303> 437 20G<147 147 374 374>
LayerCount: 2
Back
Fore
SplineSet
303 50 m 1
 254 121 l 1
 426 252 l 1
 298 386 l 1
 374 457 l 1
 570 253 l 1
 303 50 l 1
78 51 m 1
 28 121 l 1
 200 252 l 1
 71 386 l 1
 147 457 l 1
 343 253 l 1
 78 51 l 1
EndSplineSet
EndChar
StartChar: questiondown
Encoding: 191 191 115
Width: 527
Flags: MW
HStem: -1 95<140.5 212.5> 678 20G<436 436>
VStem: -18 97<154.5 214 154.5 216.5>
LayerCount: 2
Back
Fore
SplineSet
301 569 m 1
 335 681 l 1
 436 698 l 1
 403 586 l 1
 301 569 l 1
158 -1 m 0
 44 -1 -18 56 -18 150 c 0
 -18 283 80 352 147 403 c 2
 334 544 l 1
 364 458 l 1
 194 331 l 2
 141 291 79 251 79 177 c 0
 79 132 106 94 175 94 c 0
 261 94 337 186 347 198 c 1
 402 127 l 1
 370 90 267 -1 158 -1 c 0
EndSplineSet
EndChar
StartChar: Agrave
Encoding: 192 192 226
Width: 649
Flags: MW
HStem: -12 21G<443 443> 892 20G<446 446>
LayerCount: 2
Back
Fore
SplineSet
551 750 m 1
 457 700 l 1
 335 856 l 1
 446 912 l 1
 551 750 l 1
465 684 m 1
 539 45 l 1
 443 -12 l 1
 413 240 l 1
 190 195 l 1
 72 -8 l 1
 -6 36 l 1
 74 171 l 1
 50 168 l 1
 54 264 l 1
 137 279 l 1
 363 666 l 1
 465 684 l 1
253 303 m 1
 402 334 l 1
 380 518 l 1
 253 303 l 1
EndSplineSet
EndChar
StartChar: Aacute
Encoding: 193 193 149
Width: 649
Flags: MW
HStem: -12 21G<443 443> 886 20G<502 502>
LayerCount: 2
Back
Fore
SplineSet
307 772 m 1
 502 906 l 1
 572 831 l 1
 366 710 l 1
 307 772 l 1
465 684 m 1
 539 45 l 1
 443 -12 l 1
 413 240 l 1
 190 195 l 1
 72 -8 l 1
 -6 36 l 1
 74 171 l 1
 50 168 l 1
 54 264 l 1
 137 279 l 1
 363 666 l 1
 465 684 l 1
253 303 m 1
 402 334 l 1
 380 518 l 1
 253 303 l 1
EndSplineSet
EndChar
StartChar: Acircumflex
Encoding: 194 194 150
Width: 649
Flags: MW
HStem: -12 21G<443 443> 875 20G<472 472>
LayerCount: 2
Back
Fore
SplineSet
314 690 m 1
 268 756 l 1
 472 895 l 1
 593 751 l 1
 514 691 l 1
 440 773 l 1
 314 690 l 1
465 684 m 1
 539 45 l 1
 443 -12 l 1
 413 240 l 1
 190 195 l 1
 72 -8 l 1
 -6 36 l 1
 74 171 l 1
 50 168 l 1
 54 264 l 1
 137 279 l 1
 363 666 l 1
 465 684 l 1
253 303 m 1
 402 334 l 1
 380 518 l 1
 253 303 l 1
EndSplineSet
EndChar
StartChar: Atilde
Encoding: 195 195 227
Width: 649
Flags: MW
HStem: -12 21G<443 443> 705 88<496.5 513.5 496.5 516.5> 788 89<353 368.5>
LayerCount: 2
Back
Fore
SplineSet
465 684 m 1xc0
 539 45 l 1
 443 -12 l 1
 413 240 l 1
 190 195 l 1
 72 -8 l 1
 -6 36 l 1
 74 171 l 1
 50 168 l 1
 54 264 l 1
 137 279 l 1
 363 666 l 1
 465 684 l 1xc0
253 303 m 1
 402 334 l 1
 380 518 l 1
 253 303 l 1
580 870 m 1
 641 838 l 1
 623 807 567 705 466 705 c 0xc0
 434 705 411 722 396 753 c 0
 384 776 376 788 361 788 c 0
 326 788 294 732 290 720 c 1
 232 753 l 1
 259 809 314 877 392 877 c 0xa0
 433 877 453 860 469 827 c 0
 478 808 490 793 503 793 c 0
 524 793 555 816 580 870 c 1
EndSplineSet
EndChar
StartChar: Adieresis
Encoding: 196 196 152
Width: 649
Flags: MW
HStem: -12 21G<443 443> 813 20G<434 434 604 604>
LayerCount: 2
Back
Fore
SplineSet
465 684 m 1
 539 45 l 1
 443 -12 l 1
 413 240 l 1
 190 195 l 1
 72 -8 l 1
 -6 36 l 1
 74 171 l 1
 50 168 l 1
 54 264 l 1
 137 279 l 1
 363 666 l 1
 465 684 l 1
253 303 m 1
 402 334 l 1
 380 518 l 1
 253 303 l 1
434 833 m 1
 397 719 l 1
 276 704 l 1
 314 818 l 1
 434 833 l 1
604 833 m 1
 567 719 l 1
 446 704 l 1
 484 818 l 1
 604 833 l 1
EndSplineSet
EndChar
StartChar: Aring
Encoding: 197 197 228
Width: 649
Flags: MW
HStem: -12 21G<443 443> 702 84<416.5 442.5 416.5 444.5> 857 85<445 469>
VStem: 300 88<803 825 803 832.5> 498 86<817.5 837.5>
LayerCount: 2
Back
Fore
SplineSet
408 702 m 0
 341 702 300 740 300 792 c 0
 300 873 388 942 478 942 c 0
 547 942 584 900 584 850 c 0
 584 752 481 702 408 702 c 0
457 857 m 0
 433 857 388 840 388 810 c 0
 388 796 405 786 428 786 c 0
 457 786 498 805 498 830 c 0
 498 845 481 857 457 857 c 0
465 684 m 1
 539 45 l 1
 443 -12 l 1
 413 240 l 1
 190 195 l 1
 72 -8 l 1
 -6 36 l 1
 74 171 l 1
 50 168 l 1
 54 264 l 1
 137 279 l 1
 363 666 l 1
 465 684 l 1
253 303 m 1
 402 334 l 1
 380 518 l 1
 253 303 l 1
EndSplineSet
EndChar
StartChar: AE
Encoding: 198 198 229
Width: 1075
Flags: MW
HStem: -6 21G<72 72> 0 99<541 895> 304 98<605 921 584 971> 582 99<643 1026 643 643>
LayerCount: 2
Back
Fore
SplineSet
157 215 m 1xb0
 159 313 l 1
 268 334 l 1
 586 681 l 1
 1064 681 l 1
 1026 582 l 1
 643 582 l 1
 605 402 l 1
 971 402 l 1
 921 304 l 1
 584 304 l 1
 541 99 l 1
 951 99 l 1
 895 0 l 1
 421 0 l 1x70
 480 281 l 1
 304 246 l 1
 72 -6 l 1
 -3 39 l 1
 157 215 l 1xb0
501 379 m 1
 523 484 l 1
 410 361 l 1
 501 379 l 1
EndSplineSet
EndChar
StartChar: Ccedilla
Encoding: 199 199 155
Width: 657
Flags: MW
HStem: -196 57<251 266.5 251 275> 0 95<293 293> 502 163<546 600 511 635> 585 96<346.5 439.5>
VStem: 48 97<208 306.5> 291 69<-119 -103.5>
LayerCount: 2
Back
Fore
SplineSet
207 -54 m 1xdc
 239 2 l 1
 124 19 48 109 48 229 c 0
 48 384 225 681 435 681 c 0xdc
 475 681 512 667 543 651 c 1
 546 665 l 1
 635 665 l 1
 600 502 l 1
 511 502 l 1xec
 519 539 l 1
 502 561 469 585 410 585 c 0
 283 585 145 362 145 253 c 0
 145 163 208 95 300 95 c 0
 379 95 456 140 514 221 c 1
 571 149 l 1
 497 60 393 4 293 0 c 1
 284 -33 l 1
 329 -37 360 -54 360 -94 c 0
 360 -159 304 -196 246 -196 c 0
 215 -196 195 -186 178 -157 c 1
 229 -123 l 1
 233 -132 244 -139 258 -139 c 0
 275 -139 291 -128 291 -110 c 0
 291 -97 282 -90 264 -90 c 0
 257 -90 246 -93 240 -98 c 1
 207 -54 l 1xdc
EndSplineSet
EndChar
StartChar: Egrave
Encoding: 200 200 230
Width: 637
Flags: MW
HStem: 0 99<126 480> 304 98<190 506 169 556> 582 99<228 611 228 228> 892 20G<398 398>
LayerCount: 2
Back
Fore
SplineSet
512 750 m 1
 419 700 l 1
 287 856 l 1
 398 912 l 1
 512 750 l 1
126 99 m 1
 536 99 l 1
 480 0 l 1
 6 0 l 1
 150 681 l 1
 649 681 l 1
 611 582 l 1
 228 582 l 1
 190 402 l 1
 556 402 l 1
 506 304 l 1
 169 304 l 1
 126 99 l 1
EndSplineSet
EndChar
StartChar: Eacute
Encoding: 201 201 157
Width: 637
Flags: MW
HStem: 0 99<126 480> 304 98<190 506 169 556> 582 99<228 611 228 228> 886 20G<486 486>
LayerCount: 2
Back
Fore
SplineSet
281 772 m 1
 486 906 l 1
 556 831 l 1
 340 710 l 1
 281 772 l 1
126 99 m 1
 536 99 l 1
 480 0 l 1
 6 0 l 1
 150 681 l 1
 649 681 l 1
 611 582 l 1
 228 582 l 1
 190 402 l 1
 556 402 l 1
 506 304 l 1
 169 304 l 1
 126 99 l 1
EndSplineSet
EndChar
StartChar: Ecircumflex
Encoding: 202 202 231
Width: 637
Flags: MW
HStem: 0 99<126 480> 304 98<190 506 169 556> 582 99<228 611 228 228> 875 20G<455 455>
LayerCount: 2
Back
Fore
SplineSet
299 700 m 1
 254 766 l 1
 455 895 l 1
 578 761 l 1
 501 701 l 1
 425 783 l 1
 299 700 l 1
126 99 m 1
 536 99 l 1
 480 0 l 1
 6 0 l 1
 150 681 l 1
 649 681 l 1
 611 582 l 1
 228 582 l 1
 190 402 l 1
 556 402 l 1
 506 304 l 1
 169 304 l 1
 126 99 l 1
EndSplineSet
EndChar
StartChar: Edieresis
Encoding: 203 203 159
Width: 637
Flags: MW
HStem: 0 99<126 480> 304 98<190 506 169 556> 582 99<228 611 228 228> 813 20G<414 414 584 584>
LayerCount: 2
Back
Fore
SplineSet
414 833 m 1
 377 719 l 1
 257 704 l 1
 295 818 l 1
 414 833 l 1
584 833 m 1
 547 719 l 1
 427 704 l 1
 465 818 l 1
 584 833 l 1
126 99 m 1
 536 99 l 1
 480 0 l 1
 6 0 l 1
 150 681 l 1
 649 681 l 1
 611 582 l 1
 228 582 l 1
 190 402 l 1
 556 402 l 1
 506 304 l 1
 169 304 l 1
 126 99 l 1
EndSplineSet
EndChar
StartChar: Igrave
Encoding: 204 204 232
Width: 463
Flags: MW
HStem: 0 99<31 143 242 327 -7 143> 582 99<154 245 116 489 344 450 344 344> 892 20G<329 329>
LayerCount: 2
Back
Fore
SplineSet
443 750 m 1
 349 700 l 1
 217 856 l 1
 329 912 l 1
 443 750 l 1
450 582 m 1
 344 582 l 1
 242 99 l 1
 366 99 l 1
 327 0 l 1
 -7 0 l 1
 31 99 l 1
 143 99 l 1
 245 582 l 1
 116 582 l 1
 154 681 l 1
 489 681 l 1
 450 582 l 1
EndSplineSet
EndChar
StartChar: Iacute
Encoding: 205 205 161
Width: 463
Flags: MW
HStem: 0 99<31 143 242 327 -7 143> 582 99<154 245 116 489 344 450 344 344> 886 20G<414 414>
LayerCount: 2
Back
Fore
SplineSet
209 772 m 1
 414 906 l 1
 484 831 l 1
 268 710 l 1
 209 772 l 1
450 582 m 1
 344 582 l 1
 242 99 l 1
 366 99 l 1
 327 0 l 1
 -7 0 l 1
 31 99 l 1
 143 99 l 1
 245 582 l 1
 116 582 l 1
 154 681 l 1
 489 681 l 1
 450 582 l 1
EndSplineSet
EndChar
StartChar: Icircumflex
Encoding: 206 206 162
Width: 463
Flags: MW
HStem: 0 99<31 143 242 327 -7 143> 582 99<154 245 116 489 344 450 344 344> 875 20G<372 372>
LayerCount: 2
Back
Fore
SplineSet
216 700 m 1
 172 776 l 1
 372 895 l 1
 496 771 l 1
 417 701 l 1
 342 783 l 1
 216 700 l 1
450 582 m 1
 344 582 l 1
 242 99 l 1
 366 99 l 1
 327 0 l 1
 -7 0 l 1
 31 99 l 1
 143 99 l 1
 245 582 l 1
 116 582 l 1
 154 681 l 1
 489 681 l 1
 450 582 l 1
EndSplineSet
EndChar
StartChar: Idieresis
Encoding: 207 207 233
Width: 463
Flags: MW
HStem: 0 99<31 143 242 327 -7 143> 582 99<154 245 116 489 344 450 344 344> 813 20G<331 331 501 501>
LayerCount: 2
Back
Fore
SplineSet
331 833 m 1
 294 719 l 1
 173 704 l 1
 211 818 l 1
 331 833 l 1
501 833 m 1
 464 719 l 1
 343 704 l 1
 381 818 l 1
 501 833 l 1
450 582 m 1
 344 582 l 1
 242 99 l 1
 366 99 l 1
 327 0 l 1
 -7 0 l 1
 31 99 l 1
 143 99 l 1
 245 582 l 1
 116 582 l 1
 154 681 l 1
 489 681 l 1
 450 582 l 1
EndSplineSet
EndChar
StartChar: Ntilde
Encoding: 209 209 235
Width: 641
Flags: MW
HStem: -4 21G<6 6> 705 88<488.5 505.5 488.5 508.5> 788 89<345 360.5>
LayerCount: 2
Back
Fore
SplineSet
549 668 m 1xc0
 649 686 l 1
 507 16 l 1
 409 -3 l 1
 206 489 l 1
 106 15 l 1
 6 -4 l 1
 146 660 l 1
 239 685 l 1
 447 184 l 1
 549 668 l 1xc0
572 870 m 1
 633 838 l 1
 615 807 559 705 458 705 c 0xc0
 426 705 403 722 388 753 c 0
 376 776 368 788 353 788 c 0
 318 788 286 732 282 720 c 1
 224 753 l 1
 251 809 306 877 384 877 c 0xa0
 425 877 445 860 461 827 c 0
 470 808 482 793 495 793 c 0
 516 793 547 816 572 870 c 1
EndSplineSet
EndChar
StartChar: Ograve
Encoding: 210 210 236
Width: 686
Flags: MW
HStem: 0 95<239.5 334 239.5 345> 589 95<358.5 455> 892 20G<453 453>
VStem: 60 98<207 341.5 207 350> 539 100<338.5 468>
LayerCount: 2
Back
Fore
SplineSet
567 750 m 1
 473 700 l 1
 341 856 l 1
 453 912 l 1
 567 750 l 1
257 0 m 0
 133 0 60 101 60 234 c 0
 60 466 265 684 441 684 c 0
 564 684 639 583 639 449 c 0
 639 217 433 0 257 0 c 0
415 589 m 0
 302 589 158 431 158 252 c 0
 158 162 202 95 277 95 c 0
 391 95 539 254 539 423 c 0
 539 513 495 589 415 589 c 0
EndSplineSet
EndChar
StartChar: Oacute
Encoding: 211 211 167
Width: 686
Flags: MW
HStem: 0 95<239.5 334 239.5 345> 589 95<358.5 455> 886 20G<546 546>
VStem: 60 98<207 341.5 207 350> 539 100<338.5 468>
LayerCount: 2
Back
Fore
SplineSet
341 772 m 1
 546 906 l 1
 617 831 l 1
 401 710 l 1
 341 772 l 1
257 0 m 0
 133 0 60 101 60 234 c 0
 60 466 265 684 441 684 c 0
 564 684 639 583 639 449 c 0
 639 217 433 0 257 0 c 0
415 589 m 0
 302 589 158 431 158 252 c 0
 158 162 202 95 277 95 c 0
 391 95 539 254 539 423 c 0
 539 513 495 589 415 589 c 0
EndSplineSet
EndChar
StartChar: Ocircumflex
Encoding: 212 212 168
Width: 686
Flags: MW
HStem: 0 95<239.5 334 239.5 345> 589 95<358.5 455> 875 20G<503 503>
VStem: 60 98<207 341.5 207 350> 539 100<338.5 468>
LayerCount: 2
Back
Fore
SplineSet
345 695 m 1
 301 766 l 1
 503 895 l 1
 626 761 l 1
 547 696 l 1
 472 778 l 1
 345 695 l 1
257 0 m 0
 133 0 60 101 60 234 c 0
 60 466 265 684 441 684 c 0
 564 684 639 583 639 449 c 0
 639 217 433 0 257 0 c 0
415 589 m 0
 302 589 158 431 158 252 c 0
 158 162 202 95 277 95 c 0
 391 95 539 254 539 423 c 0
 539 513 495 589 415 589 c 0
EndSplineSet
EndChar
StartChar: Otilde
Encoding: 213 213 237
Width: 686
Flags: MW
HStem: 0 95<239.5 334 239.5 345> 589 95<358.5 455> 705 88<526.5 543.5 526.5 546.5> 788 89<383 398.5>
VStem: 60 98<207 341.5 207 350> 539 100<338.5 468>
LayerCount: 2
Back
Fore
SplineSet
257 0 m 0xec
 133 0 60 101 60 234 c 0
 60 466 265 684 441 684 c 0
 564 684 639 583 639 449 c 0
 639 217 433 0 257 0 c 0xec
415 589 m 0
 302 589 158 431 158 252 c 0
 158 162 202 95 277 95 c 0
 391 95 539 254 539 423 c 0
 539 513 495 589 415 589 c 0
610 870 m 1
 671 838 l 1
 653 807 597 705 496 705 c 0xec
 464 705 441 722 426 753 c 0
 414 776 406 788 391 788 c 0
 356 788 324 732 320 720 c 1
 262 753 l 1
 289 809 344 877 422 877 c 0xdc
 463 877 483 860 499 827 c 0
 508 808 520 793 533 793 c 0
 554 793 585 816 610 870 c 1
EndSplineSet
EndChar
StartChar: Odieresis
Encoding: 214 214 170
Width: 686
Flags: MW
HStem: 0 95<239.5 334 239.5 345> 589 95<358.5 455> 813 20G<454 454 623 623>
VStem: 60 98<207 341.5 207 350> 539 100<338.5 468>
LayerCount: 2
Back
Fore
SplineSet
454 833 m 1
 417 719 l 1
 296 704 l 1
 334 818 l 1
 454 833 l 1
623 833 m 1
 586 719 l 1
 466 704 l 1
 503 818 l 1
 623 833 l 1
257 0 m 0
 133 0 60 101 60 234 c 0
 60 466 265 684 441 684 c 0
 564 684 639 583 639 449 c 0
 639 217 433 0 257 0 c 0
415 589 m 0
 302 589 158 431 158 252 c 0
 158 162 202 95 277 95 c 0
 391 95 539 254 539 423 c 0
 539 513 495 589 415 589 c 0
EndSplineSet
EndChar
StartChar: multiply
Encoding: 215 215 171
Width: 380
Flags: MW
HStem: 108 21G<70 70> 377 20G<289 289>
LayerCount: 2
Back
Fore
SplineSet
247 253 m 1
 308 176 l 1
 227 109 l 1
 166 186 l 1
 70 108 l 1
 18 174 l 1
 115 253 l 1
 59 324 l 1
 139 390 l 1
 195 319 l 1
 289 397 l 1
 342 330 l 1
 247 253 l 1
EndSplineSet
EndChar
StartChar: Oslash
Encoding: 216 216 238
Width: 686
Flags: MW
HStem: -39 21G<91 91> -1 95<263 346> 588 95<357 421.5> 726 20G<584 584>
VStem: 58 99<239.5 338.5 239.5 342.5> 538 100<360 437>
LayerCount: 2
Back
Fore
SplineSet
657 697 m 1
 590 611 l 1
 624 570 638 514 638 453 c 0
 638 219 436 -1 256 -1 c 0
 217 -1 176 12 147 33 c 1
 91 -39 l 1
 17 7 l 1
 89 100 l 1
 68 136 58 178 58 225 c 0
 58 460 262 683 441 683 c 0
 471 683 499 677 523 666 c 1
 584 746 l 1
 657 697 l 1
163 197 m 1
 457 579 l 1
 444 585 429 588 414 588 c 0
 300 588 157 428 157 249 c 0
 157 230 159 213 163 197 c 1
276 94 m 0
 425 94 538 301 538 419 c 0
 538 455 531 489 519 517 c 1
 209 116 l 1
 228 102 250 94 276 94 c 0
EndSplineSet
EndChar
StartChar: Ugrave
Encoding: 217 217 239
Width: 710
Flags: MW
HStem: 0 92<256.5 391.5 256.5 418> 892 20G<459 459>
VStem: 73 101<203 286>
LayerCount: 2
Back
Fore
SplineSet
573 750 m 1
 479 700 l 1
 347 856 l 1
 459 912 l 1
 573 750 l 1
288 0 m 0
 126 0 73 89 73 226 c 0
 73 346 129 562 152 668 c 1
 255 685 l 1
 236 606 174 364 174 249 c 0
 174 157 206 92 307 92 c 0
 476 92 528 276 560 425 c 0
 576 502 602 633 608 666 c 1
 711 685 l 1
 707 662 682 536 668 467 c 0
 620 240 548 0 288 0 c 0
EndSplineSet
EndChar
StartChar: Uacute
Encoding: 218 218 174
Width: 710
Flags: MW
HStem: 0 92<256.5 391.5 256.5 418> 886 20G<548 548>
VStem: 73 101<203 286>
LayerCount: 2
Back
Fore
SplineSet
343 772 m 1
 548 906 l 1
 619 831 l 1
 403 710 l 1
 343 772 l 1
288 0 m 0
 126 0 73 89 73 226 c 0
 73 346 129 562 152 668 c 1
 255 685 l 1
 236 606 174 364 174 249 c 0
 174 157 206 92 307 92 c 0
 476 92 528 276 560 425 c 0
 576 502 602 633 608 666 c 1
 711 685 l 1
 707 662 682 536 668 467 c 0
 620 240 548 0 288 0 c 0
EndSplineSet
EndChar
StartChar: Ucircumflex
Encoding: 219 219 240
Width: 710
Flags: MW
HStem: 0 92<256.5 391.5 256.5 418> 875 20G<492 492>
VStem: 73 101<203 286>
LayerCount: 2
Back
Fore
SplineSet
335 690 m 1
 289 756 l 1
 492 895 l 1
 613 751 l 1
 535 691 l 1
 463 773 l 1
 335 690 l 1
288 0 m 0
 126 0 73 89 73 226 c 0
 73 346 129 562 152 668 c 1
 255 685 l 1
 236 606 174 364 174 249 c 0
 174 157 206 92 307 92 c 0
 476 92 528 276 560 425 c 0
 576 502 602 633 608 666 c 1
 711 685 l 1
 707 662 682 536 668 467 c 0
 620 240 548 0 288 0 c 0
EndSplineSet
EndChar
StartChar: Udieresis
Encoding: 220 220 176
Width: 710
Flags: MW
HStem: 0 92<256.5 391.5 256.5 418> 813 20G<454 454 623 623>
VStem: 73 101<203 286>
LayerCount: 2
Back
Fore
SplineSet
454 833 m 1
 417 719 l 1
 297 704 l 1
 335 818 l 1
 454 833 l 1
623 833 m 1
 586 719 l 1
 466 704 l 1
 504 818 l 1
 623 833 l 1
288 0 m 0
 126 0 73 89 73 226 c 0
 73 346 129 562 152 668 c 1
 255 685 l 1
 236 606 174 364 174 249 c 0
 174 157 206 92 307 92 c 0
 476 92 528 276 560 425 c 0
 576 502 602 633 608 666 c 1
 711 685 l 1
 707 662 682 536 668 467 c 0
 620 240 548 0 288 0 c 0
EndSplineSet
EndChar
StartChar: Yacute
Encoding: 221 221 177
Width: 654
Flags: MW
HStem: 0 21G<80 193 80 80> 886 20G<522 522>
LayerCount: 2
Back
Fore
SplineSet
317 772 m 1
 522 906 l 1
 592 831 l 1
 376 710 l 1
 317 772 l 1
336 318 m 1
 625 677 l 1
 738 677 l 1
 193 0 l 1
 80 0 l 1
 258 223 l 1
 90 677 l 1
 202 677 l 1
 336 318 l 1
EndSplineSet
EndChar
StartChar: Thorn
Encoding: 222 222 241
Width: 532
Flags: MW
HStem: -6 21G<2 2> 135 99<128 150> 486 97<205 225> 671 20G<248 248>
VStem: 415 103<345 422>
LayerCount: 2
Back
Fore
SplineSet
146 670 m 1
 248 691 l 1
 225 583 l 1
 350 581 518 561 518 421 c 0
 518 205 278 146 128 135 c 1
 103 16 l 1
 2 -6 l 1
 146 670 l 1
150 234 m 1
 295 245 415 299 415 391 c 0
 415 453 325 481 205 486 c 1
 150 234 l 1
EndSplineSet
EndChar
StartChar: germandbls
Encoding: 223 223 179
Width: 551
Flags: MW
HStem: -22 93<243 284.5 243 300.5> 535 92<273.5 313.5>
VStem: 362 95<468 488.5> 381 96<169 227>
LayerCount: 2
Back
Fore
SplineSet
457 492 m 0xe0
 457 444 434 390 392 360 c 1
 443 337 477 292 477 227 c 0
 477 101 364 -22 237 -22 c 0
 203 -22 163 -14 124 13 c 1
 186 95 l 1
 207 78 234 71 252 71 c 0
 317 71 381 134 381 204 c 0xd0
 381 250 350 291 296 291 c 0
 281 291 248 287 192 276 c 1
 240 375 l 1
 333 387 362 434 362 471 c 0
 362 506 332 535 295 535 c 0
 252 535 204 499 195 457 c 2
 105 33 l 1
 3 -14 l 1
 103 457 l 2
 123 551 220 627 315 627 c 0
 397 627 457 570 457 492 c 0xe0
EndSplineSet
EndChar
StartChar: atilde
Encoding: 227 227 243
Width: 539
Flags: MW
HStem: -5 21G<293 293> 6 96<178 206.5> 417 95<270.5 332.5> 536 88<405.5 422.5 405.5 425.5> 619 89<262 277.5>
VStem: 33 100<167 239>
LayerCount: 2
Back
Fore
SplineSet
490 466 m 1x74
 393 13 l 1
 293 -5 l 1xb4
 302 34 l 1
 266 18 227 6 186 6 c 0
 93 6 33 69 33 166 c 0
 33 312 168 512 338 512 c 0
 392 512 444 492 490 466 c 1x74
323 417 m 0
 218 417 133 292 133 189 c 0
 133 145 151 102 205 102 c 0x74
 245 102 295 126 323 143 c 1
 382 404 l 1
 367 412 342 417 323 417 c 0
489 701 m 1
 550 669 l 1
 532 638 476 536 375 536 c 0x74
 343 536 320 553 305 584 c 0
 293 607 285 619 270 619 c 0
 235 619 203 563 199 551 c 1
 141 584 l 1
 168 640 223 708 301 708 c 0x6c
 342 708 362 691 378 658 c 0
 387 639 399 624 412 624 c 0
 433 624 464 647 489 701 c 1
EndSplineSet
EndChar
StartChar: aring
Encoding: 229 229 244
Width: 530
Flags: MW
HStem: -5 21G<293 293> 6 96<178 206.5> 417 95<270.5 332.5> 542 84<332.5 358.5 332.5 360.5> 697 85<361 385>
VStem: 33 100<167 239> 216 88<643 665 643 672.5> 414 86<657.5 677.5>
LayerCount: 2
Back
Fore
SplineSet
324 542 m 0x7f
 257 542 216 580 216 632 c 0
 216 713 304 782 394 782 c 0
 463 782 500 740 500 690 c 0
 500 592 397 542 324 542 c 0x7f
373 697 m 0
 349 697 304 680 304 650 c 0
 304 636 321 626 344 626 c 0
 373 626 414 645 414 670 c 0
 414 685 397 697 373 697 c 0
490 466 m 1
 393 13 l 1
 293 -5 l 1xbf
 302 34 l 1
 266 18 227 6 186 6 c 0
 93 6 33 69 33 166 c 0
 33 312 168 512 338 512 c 0
 392 512 444 492 490 466 c 1
323 417 m 0
 218 417 133 292 133 189 c 0
 133 145 151 102 205 102 c 0x7f
 245 102 295 126 323 143 c 1
 382 404 l 1
 367 412 342 417 323 417 c 0
EndSplineSet
EndChar
StartChar: ae
Encoding: 230 230 245
Width: 890
Flags: MW
HStem: -5 21G<301 301> 0 21G<522 582> 6 86 417 85 492 20G<262.5 373.5>
VStem: 41 101<166 239.5 166 240>
LayerCount: 2
Back
Fore
SplineSet
550 0 m 0x54
 494 0 445 21 411 54 c 1
 402 13 l 1
 301 -5 l 1x94
 310 34 l 1
 274 18 235 6 195 6 c 0
 101 6 41 69 41 167 c 0
 41 313 178 512 347 512 c 0x2c
 400 512 453 492 499 466 c 1
 492 438 l 1
 541 481 598 502 656 502 c 0
 748 502 809 426 816 335 c 1
 460 158 l 1
 479 122 520 92 569 92 c 0x34
 610 92 657 115 705 156 c 1
 758 93 l 1
 689 33 614 0 550 0 c 0x54
331 417 m 0
 226 417 142 291 142 188 c 0
 142 144 160 102 213 102 c 0
 253 102 304 126 331 143 c 1
 391 404 l 1
 375 409 350 417 331 417 c 0
452 247 m 1
 704 375 l 1
 690 396 664 410 638 410 c 0
 548 410 470 334 452 247 c 1
EndSplineSet
EndChar
StartChar: ccedilla
Encoding: 231 231 187
Width: 533
Flags: MW
HStem: -196 57<171 186.5 171 195> 0 93<217 224 213 260.5> 409 93<260 324>
VStem: 34 95<150.5 223 150.5 226.5> 211 69<-119 -103.5>
LayerCount: 2
Back
Fore
SplineSet
127 -54 m 1
 161 6 l 1
 86 26 34 91 34 174 c 0
 34 279 163 502 325 502 c 0
 390 502 442 470 474 411 c 1
 389 342 l 1
 373 386 341 409 307 409 c 0
 213 409 129 257 129 189 c 0
 129 112 199 93 235 93 c 0
 286 93 339 129 382 186 c 1
 439 114 l 1
 381 47 302 3 224 0 c 2
 213 0 l 1
 204 -33 l 1
 249 -37 280 -54 280 -94 c 0
 280 -159 224 -196 166 -196 c 0
 135 -196 115 -186 98 -157 c 1
 149 -123 l 1
 153 -132 164 -139 178 -139 c 0
 195 -139 211 -128 211 -110 c 0
 211 -97 202 -90 184 -90 c 0
 177 -90 166 -93 160 -98 c 1
 127 -54 l 1
EndSplineSet
EndChar
StartChar: egrave
Encoding: 232 232 246
Width: 553
Flags: MW
HStem: 0 92<230.5 268> 410 92<278 336> 717 20G<335 335>
LayerCount: 2
Back
Fore
SplineSet
447 579 m 1
 355 530 l 1
 226 682 l 1
 335 737 l 1
 447 579 l 1
236 0 m 0
 119 0 40 85 40 197 c 0
 40 357 189 502 342 502 c 0
 433 502 495 426 502 335 c 1
 146 158 l 1
 165 122 206 92 255 92 c 0
 296 92 343 115 391 156 c 1
 444 93 l 1
 375 33 300 0 236 0 c 0
137 247 m 1
 389 375 l 1
 375 396 349 410 323 410 c 0
 233 410 155 334 137 247 c 1
EndSplineSet
EndChar
StartChar: ecircumflex
Encoding: 234 234 247
Width: 553
Flags: MW
HStem: 0 92<230.5 268> 410 92<278 336> 700 20G<374 374>
LayerCount: 2
Back
Fore
SplineSet
220 520 m 1
 176 585 l 1
 374 720 l 1
 492 580 l 1
 416 521 l 1
 343 602 l 1
 220 520 l 1
236 0 m 0
 119 0 40 85 40 197 c 0
 40 357 189 502 342 502 c 0
 433 502 495 426 502 335 c 1
 146 158 l 1
 165 122 206 92 255 92 c 0
 296 92 343 115 391 156 c 1
 444 93 l 1
 375 33 300 0 236 0 c 0
137 247 m 1
 389 375 l 1
 375 396 349 410 323 410 c 0
 233 410 155 334 137 247 c 1
EndSplineSet
EndChar
StartChar: edieresis
Encoding: 235 235 191
Width: 553
Flags: MW
HStem: 0 92<230.5 268> 410 92<278 336> 652 20G<346 346 511 511>
LayerCount: 2
Back
Fore
SplineSet
346 672 m 1
 311 561 l 1
 193 546 l 1
 230 658 l 1
 346 672 l 1
511 672 m 1
 476 561 l 1
 359 546 l 1
 396 658 l 1
 511 672 l 1
236 0 m 0
 119 0 40 85 40 197 c 0
 40 357 189 502 342 502 c 0
 433 502 495 426 502 335 c 1
 146 158 l 1
 165 122 206 92 255 92 c 0
 296 92 343 115 391 156 c 1
 444 93 l 1
 375 33 300 0 236 0 c 0
137 247 m 1
 389 375 l 1
 375 396 349 410 323 410 c 0
 233 410 155 334 137 247 c 1
EndSplineSet
EndChar
StartChar: igrave
Encoding: 236 236 248
Width: 271
Flags: MW
HStem: -5 21G<19 19> 717 20G<190 190>
LayerCount: 2
Back
Fore
SplineSet
302 579 m 1
 210 530 l 1
 81 682 l 1
 190 737 l 1
 302 579 l 1
124 489 m 1
 228 505 l 1
 123 12 l 1
 19 -5 l 1
 124 489 l 1
EndSplineSet
EndChar
StartChar: iacute
Encoding: 237 237 193
Width: 259
Flags: MW
HStem: -5 21G<10 10> 711 20G<290 290>
LayerCount: 2
Back
Fore
SplineSet
89 600 m 1
 290 731 l 1
 358 658 l 1
 147 540 l 1
 89 600 l 1
115 489 m 1
 218 505 l 1
 113 12 l 1
 10 -5 l 1
 115 489 l 1
EndSplineSet
EndChar
StartChar: icircumflex
Encoding: 238 238 194
Width: 300
Flags: MW
HStem: -5 21G<40 40> 700 20G<261 261>
LayerCount: 2
Back
Fore
SplineSet
107 520 m 1
 63 585 l 1
 261 720 l 1
 379 580 l 1
 302 521 l 1
 229 602 l 1
 107 520 l 1
145 489 m 1
 249 505 l 1
 144 12 l 1
 40 -5 l 1
 145 489 l 1
EndSplineSet
EndChar
StartChar: idieresis
Encoding: 239 239 249
Width: 300
Flags: MW
HStem: -5 21G<36 36> 652 20G<220 220 385 385>
LayerCount: 2
Back
Fore
SplineSet
220 672 m 1
 185 561 l 1
 67 546 l 1
 104 658 l 1
 220 672 l 1
385 672 m 1
 351 561 l 1
 233 546 l 1
 270 658 l 1
 385 672 l 1
141 489 m 1
 244 505 l 1
 139 12 l 1
 36 -5 l 1
 141 489 l 1
EndSplineSet
EndChar
StartChar: eth
Encoding: 240 240 250
Width: 508
Flags: MW
HStem: 0 92<163.5 231 163.5 246.5> 646 20G<462 462>
VStem: 26 93<136.5 214 136.5 218.5> 351 95<253.5 306.5>
LayerCount: 2
Back
Fore
SplineSet
472 590 m 1
 370 547 l 1
 412 483 446 406 446 321 c 0
 446 176 329 0 164 0 c 0
 81 0 26 54 26 138 c 0
 26 299 165 416 316 437 c 1
 306 458 292 485 280 501 c 1
 232 476 170 439 153 427 c 1
 131 504 l 1
 164 523 200 544 233 561 c 1
 222 574 208 586 200 592 c 1
 277 661 l 1
 290 649 314 626 327 608 c 1
 364 626 411 647 462 666 c 1
 472 590 l 1
183 92 m 0
 279 92 351 209 351 298 c 0
 351 315 349 333 346 350 c 1
 230 351 119 271 119 157 c 0
 119 116 144 92 183 92 c 0
EndSplineSet
EndChar
StartChar: ntilde
Encoding: 241 241 251
Width: 562
Flags: MW
HStem: -5 21G<5 5 324 324> 406 95<340 365> 536 88<428.5 445.5 428.5 448.5> 619 89<285 300.5>
VStem: 389 98
LayerCount: 2
Back
Fore
SplineSet
324 -5 m 1xe8
 359 157 l 2
 377 239 389 300 389 343 c 0
 389 380 379 406 351 406 c 0
 319 406 275 394 217 319 c 0
 179 266 144 193 131 135 c 2
 104 13 l 1
 5 -5 l 1
 110 489 l 1
 210 507 l 1
 189 408 l 1
 240 464 307 501 373 501 c 0
 445 501 485 463 487 386 c 0
 488 326 470 249 446 127 c 2
 424 15 l 1
 324 -5 l 1xe8
512 701 m 1
 573 669 l 1
 555 638 499 536 398 536 c 0xe8
 366 536 343 553 328 584 c 0
 316 607 308 619 293 619 c 0
 258 619 226 563 222 551 c 1
 164 584 l 1
 191 640 246 708 324 708 c 0xd8
 365 708 385 691 401 658 c 0
 410 639 422 624 435 624 c 0
 456 624 487 647 512 701 c 1
EndSplineSet
EndChar
StartChar: oacute
Encoding: 243 243 199
Width: 561
Flags: MW
HStem: 0 89<190.5 256.5 190.5 269> 411 89<269 336.5> 711 20G<456 456>
VStem: 36 99<163.5 247.5 163.5 260.5> 396 100<247 332>
LayerCount: 2
Back
Fore
SplineSet
255 600 m 1
 456 731 l 1
 524 658 l 1
 313 540 l 1
 255 600 l 1
199 0 m 0
 99 0 36 76 36 177 c 0
 36 344 193 500 333 500 c 0
 432 500 496 422 496 322 c 0
 496 154 339 0 199 0 c 0
310 411 m 0
 228 411 135 302 135 193 c 0
 135 134 164 89 217 89 c 0
 296 89 396 193 396 301 c 0
 396 363 363 411 310 411 c 0
EndSplineSet
EndChar
StartChar: ocircumflex
Encoding: 244 244 200
Width: 561
Flags: MW
HStem: 0 89<190.5 256.5 190.5 269> 411 89<269 336.5> 700 20G<396 396>
VStem: 36 99<163.5 247.5 163.5 260.5> 396 100<247 332>
LayerCount: 2
Back
Fore
SplineSet
242 520 m 1
 198 585 l 1
 396 720 l 1
 514 580 l 1
 437 521 l 1
 364 602 l 1
 242 520 l 1
199 0 m 0
 99 0 36 76 36 177 c 0
 36 344 193 500 333 500 c 0
 432 500 496 422 496 322 c 0
 496 154 339 0 199 0 c 0
310 411 m 0
 228 411 135 302 135 193 c 0
 135 134 164 89 217 89 c 0
 296 89 396 193 396 301 c 0
 396 363 363 411 310 411 c 0
EndSplineSet
EndChar
StartChar: otilde
Encoding: 245 245 253
Width: 561
Flags: MW
HStem: 0 89<190.5 256.5 190.5 269> 411 89<269 336.5> 536 88<424.5 441.5 424.5 444.5> 619 89<281 296.5>
VStem: 36 99<163.5 247.5 163.5 260.5> 396 100<247 332>
LayerCount: 2
Back
Fore
SplineSet
199 0 m 0xec
 99 0 36 76 36 177 c 0
 36 344 193 500 333 500 c 0
 432 500 496 422 496 322 c 0
 496 154 339 0 199 0 c 0xec
310 411 m 0
 228 411 135 302 135 193 c 0
 135 134 164 89 217 89 c 0
 296 89 396 193 396 301 c 0
 396 363 363 411 310 411 c 0
508 701 m 1
 569 669 l 1
 551 638 495 536 394 536 c 0xec
 362 536 339 553 324 584 c 0
 312 607 304 619 289 619 c 0
 254 619 222 563 218 551 c 1
 160 584 l 1
 187 640 242 708 320 708 c 0xdc
 361 708 381 691 397 658 c 0
 406 639 418 624 431 624 c 0
 452 624 483 647 508 701 c 1
EndSplineSet
EndChar
StartChar: odieresis
Encoding: 246 246 202
Width: 561
Flags: MW
HStem: 0 89<190.5 256.5 190.5 269> 411 89<269 336.5> 652 20G<359 359 525 525>
VStem: 36 99<163.5 247.5 163.5 260.5> 396 100<247 332>
LayerCount: 2
Back
Fore
SplineSet
359 672 m 1
 325 561 l 1
 207 546 l 1
 244 658 l 1
 359 672 l 1
525 672 m 1
 490 561 l 1
 373 546 l 1
 409 658 l 1
 525 672 l 1
199 0 m 0
 99 0 36 76 36 177 c 0
 36 344 193 500 333 500 c 0
 432 500 496 422 496 322 c 0
 496 154 339 0 199 0 c 0
310 411 m 0
 228 411 135 302 135 193 c 0
 135 134 164 89 217 89 c 0
 296 89 396 193 396 301 c 0
 396 363 363 411 310 411 c 0
EndSplineSet
EndChar
StartChar: divide
Encoding: 247 247 203
Width: 433
Flags: MW
HStem: 87 21G<108 108> 218 83<34 379 69 344> 411 20G<304 304>
LayerCount: 2
Back
Fore
SplineSet
304 431 m 1
 274 336 l 1
 173 326 l 1
 204 419 l 1
 304 431 l 1
240 194 m 1
 210 99 l 1
 108 87 l 1
 139 182 l 1
 240 194 l 1
34 218 m 1
 69 301 l 1
 379 301 l 1
 344 218 l 1
 34 218 l 1
EndSplineSet
EndChar
StartChar: oslash
Encoding: 248 248 254
Width: 561
Flags: MW
HStem: -40 21G<82 82> 0 89<211.5 264 211.5 269.5> 411 89<268 313> 529 20G<444 444>
VStem: 35 100<184 244 184 254.5> 395 101<256 309.5>
LayerCount: 2
Back
Fore
SplineSet
514 503 m 1
 462 437 l 1
 485 407 496 366 496 323 c 0
 496 154 340 0 199 0 c 0
 173 0 148 5 126 15 c 1
 82 -40 l 1
 11 6 l 1
 63 70 l 1
 44 98 35 132 35 170 c 0
 35 339 188 500 333 500 c 0
 355 500 376 497 396 488 c 1
 444 549 l 1
 514 503 l 1
136 163 m 1
 332 408 l 1
 325 410 316 411 310 411 c 0
 226 411 135 300 135 188 c 0
 135 180 135 171 136 163 c 1
217 89 m 0
 311 89 395 210 395 302 c 0
 395 317 393 332 390 346 c 1
 188 94 l 1
 198 90 206 89 217 89 c 0
EndSplineSet
EndChar
StartChar: uacute
Encoding: 250 250 206
Width: 542
Flags: MW
HStem: -5 90<171 191> 711 20G<429 429>
VStem: 43 99<132 145.5>
LayerCount: 2
Back
Fore
SplineSet
229 600 m 1
 429 731 l 1
 497 658 l 1
 286 540 l 1
 229 600 l 1
162 286 m 0
 152 238 142 189 142 152 c 0
 142 112 153 85 189 85 c 0
 244 85 306 125 328 143 c 0
 333 147 336 155 339 167 c 2
 408 491 l 1
 510 508 l 1
 405 12 l 1
 300 -4 l 1
 308 36 l 1
 269 14 216 -5 166 -5 c 0
 70 -5 43 48 43 121 c 0
 43 170 55 229 67 286 c 0
 76 328 100 418 128 492 c 1
 231 509 l 1
 223 488 178 359 162 286 c 0
EndSplineSet
EndChar
StartChar: yacute
Encoding: 253 253 209
Width: 526
Flags: MW
HStem: -188 21G<93 93> 711 20G<407 407>
LayerCount: 2
Back
Fore
SplineSet
206 600 m 1
 407 731 l 1
 476 658 l 1
 265 540 l 1
 206 600 l 1
456 507 m 1
 536 466 l 1
 93 -188 l 1
 14 -147 l 1
 166 77 l 1
 55 463 l 1
 150 506 l 1
 241 190 l 1
 456 507 l 1
EndSplineSet
EndChar
StartChar: thorn
Encoding: 254 254 258
Width: 554
Flags: MW
HStem: -173 21G<66 66> 0 95<200.5 274 200.5 298.5> 394 96<322 356.5> 658 20G<247 247>
VStem: 395 97<261.5 331>
LayerCount: 2
Back
Fore
SplineSet
350 490 m 0
 457 490 492 418 492 337 c 0
 492 186 391 0 206 0 c 0
 170 0 133 7 106 15 c 1
 66 -173 l 1
 -27 -156 l 1
 147 660 l 1
 247 678 l 1
 198 447 l 1
 239 472 294 490 350 490 c 0
219 95 m 0
 329 95 395 205 395 310 c 0
 395 352 381 394 332 394 c 0
 248 394 176 346 163 286 c 2
 126 111 l 1
 146 104 182 95 219 95 c 0
EndSplineSet
EndChar
StartChar: ydieresis
Encoding: 255 255 257
Width: 526
Flags: MW
HStem: -187 21G<93 93> 652 20G<324 324 490 490>
LayerCount: 2
Back
Fore
SplineSet
324 672 m 1
 289 561 l 1
 172 546 l 1
 208 658 l 1
 324 672 l 1
490 672 m 1
 455 561 l 1
 337 546 l 1
 374 658 l 1
 490 672 l 1
456 508 m 1
 536 467 l 1
 93 -187 l 1
 14 -146 l 1
 166 78 l 1
 55 464 l 1
 150 507 l 1
 241 191 l 1
 456 508 l 1
EndSplineSet
EndChar
StartChar: Abreve
Encoding: 258 258 151
Width: 649
Flags: MW
HStem: -12 21G<443 443> 718 88<432.5 465.5> 866 20G<560 560>
LayerCount: 2
Back
Fore
SplineSet
465 684 m 1
 539 45 l 1
 443 -12 l 1
 413 240 l 1
 190 195 l 1
 72 -8 l 1
 -6 36 l 1
 74 171 l 1
 50 168 l 1
 54 264 l 1
 137 279 l 1
 363 666 l 1
 465 684 l 1
253 303 m 1
 402 334 l 1
 380 518 l 1
 253 303 l 1
446 806 m 0
 492 806 527 829 560 886 c 1
 610 822 l 1
 573 755 499 718 432 718 c 0
 359 718 303 752 288 817 c 1
 361 878 l 1
 384 809 419 806 446 806 c 0
EndSplineSet
EndChar
StartChar: abreve
Encoding: 259 259 183
Width: 530
Flags: MW
HStem: -5 21G<293 293> 6 96<178 206.5> 417 95<270.5 332.5> 538 88<342.5 375.5> 686 20G<470 470>
VStem: 33 100<167 239>
LayerCount: 2
Back
Fore
SplineSet
356 626 m 0x7c
 402 626 436 649 470 706 c 1
 520 642 l 1
 483 575 409 538 342 538 c 0
 269 538 213 572 198 637 c 1
 271 698 l 1
 294 629 329 626 356 626 c 0x7c
490 466 m 1
 393 13 l 1
 293 -5 l 1xbc
 302 34 l 1
 266 18 227 6 186 6 c 0
 93 6 33 69 33 166 c 0
 33 312 168 512 338 512 c 0
 392 512 444 492 490 466 c 1
323 417 m 0
 218 417 133 292 133 189 c 0
 133 145 151 102 205 102 c 0x7c
 245 102 295 126 323 143 c 1
 382 404 l 1
 367 412 342 417 323 417 c 0
EndSplineSet
EndChar
StartChar: Aogonek
Encoding: 260 260 116
Width: 663
Flags: MW
HStem: -196 84<367.5 378.5> 664 20G<465 465>
VStem: 256 94<-97 -78.5 -97 -78>
LayerCount: 2
Back
Fore
SplineSet
539 45 m 1
 403 -34 l 2
 384 -45 350 -66 350 -91 c 0
 350 -103 361 -112 374 -112 c 0
 395 -112 420 -98 453 -75 c 1
 492 -131 l 1
 459 -164 401 -196 356 -196 c 0
 297 -196 256 -170 256 -119 c 0
 256 -37 327 1 385 30 c 2
 434 55 l 1
 413 240 l 1
 190 195 l 1
 72 -8 l 1
 -6 36 l 1
 74 171 l 1
 50 168 l 1
 54 264 l 1
 137 279 l 1
 363 666 l 1
 465 684 l 1
 539 45 l 1
253 303 m 1
 402 334 l 1
 380 518 l 1
 253 303 l 1
EndSplineSet
EndChar
StartChar: aogonek
Encoding: 261 261 133
Width: 536
Flags: MW
HStem: -196 74<274.5 282.5> 11 91<177 206.5> 417 95<268 331.5>
VStem: 32 100<167 195.5 167 240> 163 94<-107 -87 -107 -84>
LayerCount: 2
Back
Fore
SplineSet
297 18 m 1
 302 39 l 1
 266 23 227 11 186 11 c 0
 92 11 32 70 32 167 c 0
 32 313 168 512 337 512 c 0
 391 512 443 492 489 466 c 1
 390 0 l 1
 310 -44 l 2
 291 -54 257 -73 257 -101 c 0
 257 -113 268 -122 281 -122 c 0
 312 -122 336 -108 368 -85 c 1
 401 -131 l 1
 368 -164 310 -196 255 -196 c 0
 203 -196 163 -170 163 -123 c 0
 163 -45 237 -12 297 18 c 1
136 227 m 0
 133 215 132 202 132 189 c 0
 132 145 150 102 204 102 c 0
 244 102 294 126 322 143 c 1
 381 404 l 1
 366 412 341 417 322 417 c 0
 214 417 150 296 136 227 c 0
EndSplineSet
EndChar
StartChar: cacute
Encoding: 263 263 186
Width: 533
Flags: MW
HStem: 0 93<223 240 223 254> 409 93<260 324> 711 20G<432 432>
VStem: 34 95<148 223 148 226.5>
LayerCount: 2
Back
Fore
SplineSet
231 600 m 1
 432 731 l 1
 500 658 l 1
 289 540 l 1
 231 600 l 1
240 93 m 0
 289 95 341 131 382 186 c 1
 439 114 l 1
 378 43 295 0 213 0 c 0
 111 0 34 74 34 174 c 0
 34 279 163 502 325 502 c 0
 390 502 442 470 474 411 c 1
 389 342 l 1
 373 386 341 409 307 409 c 0
 213 409 129 257 129 189 c 0
 129 107 206 93 240 93 c 0
EndSplineSet
EndChar
StartChar: Ccaron
Encoding: 268 268 156
Width: 657
Flags: MW
HStem: -1 96<254 331.5> 502 163<546 600 511 635> 585 96<346.5 439.5> 877 20G<387 387 589 589>
VStem: 48 97<208 306.5>
LayerCount: 2
Back
Fore
SplineSet
589 897 m 1xb8
 633 824 l 1
 433 701 l 1
 308 830 l 1
 387 897 l 1
 460 812 l 1
 589 897 l 1xb8
279 -1 m 0
 144 -1 48 95 48 229 c 0
 48 384 225 681 435 681 c 0xb8
 475 681 512 667 543 651 c 1
 546 665 l 1
 635 665 l 1
 600 502 l 1
 511 502 l 1xd8
 519 539 l 1
 502 561 469 585 410 585 c 0
 283 585 145 362 145 253 c 0
 145 163 208 95 300 95 c 0
 379 95 456 140 514 221 c 1
 571 149 l 1
 494 56 384 -1 279 -1 c 0
EndSplineSet
EndChar
StartChar: ccaron
Encoding: 269 269 188
Width: 533
Flags: MW
HStem: 0 93<223 240 223 254> 409 93<260 324> 702 20G<292 292 488 488>
VStem: 34 95<148 223 148 226.5>
LayerCount: 2
Back
Fore
SplineSet
488 722 m 1
 531 652 l 1
 336 532 l 1
 214 657 l 1
 292 722 l 1
 363 639 l 1
 488 722 l 1
240 93 m 0
 289 95 341 131 382 186 c 1
 439 114 l 1
 378 43 295 0 213 0 c 0
 111 0 34 74 34 174 c 0
 34 279 163 502 325 502 c 0
 390 502 442 470 474 411 c 1
 389 342 l 1
 373 386 341 409 307 409 c 0
 213 409 129 257 129 189 c 0
 129 107 206 93 240 93 c 0
EndSplineSet
EndChar
StartChar: Dcaron
Encoding: 270 270 163
Width: 642
Flags: MW
HStem: -14 97<168 202.5 168 281> 583 97<226 293> 877 20G<320 320 521 521>
VStem: 484 99<311.5 438.5>
LayerCount: 2
Back
Fore
SplineSet
521 897 m 1
 565 824 l 1
 365 701 l 1
 241 830 l 1
 320 897 l 1
 393 812 l 1
 521 897 l 1
7 7 m 1
 150 680 l 1
 197 680 l 2
 469 680 583 549 583 375 c 0
 583 144 404 -14 158 -14 c 0
 122 -14 55 -7 7 7 c 1
357 123 m 0
 430 164 484 255 484 368 c 0
 484 509 360 583 226 583 c 1
 121 86 l 1
 136 84 158 83 178 83 c 0
 227 83 298 89 357 123 c 0
EndSplineSet
EndChar
StartChar: dcaron
Encoding: 271 271 195
Width: 635
Flags: MW
HStem: -5 21G<289 289> 5 90<157.5 190.5> 402 94<231 306> 664 20G<542 542>
VStem: 24 98<154.5 198.5 154.5 255>
LayerCount: 2
Back
Fore
SplineSet
646 679 m 1x78
 723 624 l 1
 587 434 l 1
 512 482 l 1
 579 568 l 1
 542 592 l 1
 646 679 l 1x78
445 667 m 1
 542 684 l 1
 384 12 l 1
 289 -5 l 1xb8
 300 47 l 1
 261 23 219 5 162 5 c 0
 64 5 24 78 24 163 c 0
 24 347 152 496 310 496 c 0
 340 496 372 488 401 479 c 1
 445 667 l 1
330 171 m 2
 378 376 l 1
 361 386 327 402 285 402 c 0
 148 402 122 222 122 175 c 0
 122 134 134 95 181 95 c 0x78
 259 95 325 149 330 171 c 2
EndSplineSet
EndChar
StartChar: Dcroat
Encoding: 272 272 164
Width: 702
Flags: MW
HStem: -14 97<222 256.5 222 335> 271 102<59 117 20 138 59 214 235 304> 583 97<280 347>
VStem: 538 99<311.5 438.5>
LayerCount: 2
Back
Fore
SplineSet
61 7 m 1
 117 271 l 1
 20 271 l 1
 59 373 l 1
 138 373 l 1
 204 680 l 1
 251 680 l 2
 523 680 637 549 637 375 c 0
 637 144 458 -14 212 -14 c 0
 176 -14 109 -7 61 7 c 1
411 123 m 0
 484 164 538 255 538 368 c 0
 538 509 414 583 280 583 c 1
 235 373 l 1
 343 373 l 1
 304 271 l 1
 214 271 l 1
 175 86 l 1
 190 84 212 83 232 83 c 0
 281 83 352 89 411 123 c 0
EndSplineSet
EndChar
StartChar: dcroat
Encoding: 273 273 196
Width: 576
Flags: MW
HStem: -5 21G<299 299> 5 90<167.5 200.5> 392 94<239.5 314> 523 83<365 422 331 440 533 601 365 514> 664 20G<552 552>
VStem: 33 97<153 199 153 250>
LayerCount: 2
Back
Fore
SplineSet
455 667 m 1x7c
 552 684 l 1
 533 606 l 1
 636 606 l 1
 601 523 l 1
 514 523 l 1
 394 12 l 1
 299 -5 l 1xbc
 310 47 l 1
 271 23 229 5 172 5 c 0
 74 5 33 75 33 160 c 0
 33 340 161 486 318 486 c 0
 348 486 380 478 409 469 c 1
 422 523 l 1
 331 523 l 1
 365 606 l 1
 440 606 l 1
 455 667 l 1x7c
340 171 m 2
 386 366 l 1
 368 376 335 392 293 392 c 0
 159 392 130 225 130 173 c 0
 130 133 144 95 191 95 c 0x7c
 269 95 335 149 340 171 c 2
EndSplineSet
EndChar
StartChar: Eogonek
Encoding: 280 280 158
Width: 637
Flags: MW
HStem: -196 84<373.5 384.5> 0 99<126 344 480 480> 304 98<190 506 169 556> 582 99<228 611 228 228>
VStem: 262 94<-97 -91 -97 -89.5>
LayerCount: 2
Back
Fore
SplineSet
480 0 m 1
 409 -34 l 2
 390 -43 357 -63 356 -91 c 0
 356 -103 367 -112 380 -112 c 0
 401 -112 426 -98 459 -75 c 1
 500 -131 l 1
 467 -164 407 -196 362 -196 c 0
 303 -196 262 -170 262 -119 c 0
 262 -60 303 -26 344 0 c 1
 6 0 l 1
 150 681 l 1
 649 681 l 1
 611 582 l 1
 228 582 l 1
 190 402 l 1
 556 402 l 1
 506 304 l 1
 169 304 l 1
 126 99 l 1
 536 99 l 1
 480 0 l 1
EndSplineSet
EndChar
StartChar: eogonek
Encoding: 281 281 190
Width: 553
Flags: MW
HStem: -196 84<203.5 214.5> 410 92<278 336>
VStem: 92 94<-97 -87.5>
LayerCount: 2
Back
Fore
SplineSet
239 -33 m 0
 220 -44 186 -63 186 -91 c 0
 186 -103 197 -112 210 -112 c 0
 231 -112 256 -98 289 -75 c 1
 328 -131 l 1
 295 -164 237 -196 192 -196 c 0
 133 -196 92 -170 92 -119 c 0
 92 -56 134 -18 178 7 c 1
 94 30 40 103 40 196 c 0
 40 356 189 502 342 502 c 0
 433 502 495 426 502 335 c 1
 146 158 l 1
 165 122 206 92 255 92 c 0
 296 92 343 115 391 156 c 1
 444 93 l 1
 406 61 370 34 239 -33 c 0
137 247 m 1
 389 375 l 1
 375 396 349 410 323 410 c 0
 233 410 155 334 137 247 c 1
EndSplineSet
EndChar
StartChar: Ecaron
Encoding: 282 282 160
Width: 637
Flags: MW
HStem: 0 99<126 480> 304 98<190 506 169 556> 582 99<228 611 228 228> 877 20G<347 347 549 549>
LayerCount: 2
Back
Fore
SplineSet
549 897 m 1
 593 824 l 1
 393 701 l 1
 268 830 l 1
 347 897 l 1
 420 812 l 1
 549 897 l 1
126 99 m 1
 536 99 l 1
 480 0 l 1
 6 0 l 1
 150 681 l 1
 649 681 l 1
 611 582 l 1
 228 582 l 1
 190 402 l 1
 556 402 l 1
 506 304 l 1
 169 304 l 1
 126 99 l 1
EndSplineSet
EndChar
StartChar: Lacute
Encoding: 313 313 153
Width: 513
Flags: MW
HStem: -2 21G<3 3> 13 103 886 20G<405 405>
LayerCount: 2
Back
Fore
SplineSet
200 772 m 1x60
 405 906 l 1
 475 831 l 1
 259 710 l 1
 200 772 l 1x60
3 -2 m 1xa0
 145 665 l 1
 248 683 l 1
 125 104 l 1
 447 128 l 1
 431 29 l 1
 3 -2 l 1xa0
EndSplineSet
EndChar
StartChar: lacute
Encoding: 314 314 185
Width: 252
Flags: MW
HStem: -5 21G<17 17> 865 20G<326 326>
LayerCount: 2
Back
Fore
SplineSet
125 754 m 1
 326 885 l 1
 394 812 l 1
 183 694 l 1
 125 754 l 1
159 661 m 1
 259 679 l 1
 117 12 l 1
 17 -5 l 1
 159 661 l 1
EndSplineSet
EndChar
StartChar: Lcaron
Encoding: 317 317 120
Width: 558
Flags: MW
HStem: -2 21G<46 46> 13 103 877 20G<251 251 452 452>
LayerCount: 2
Back
Fore
SplineSet
46 -2 m 1
 188 665 l 1
 291 683 l 1
 168 104 l 1
 489 128 l 1
 474 29 l 1
 46 -2 l 1
452 897 m 1
 496 824 l 1
 296 701 l 1
 171 825 l 1
 251 897 l 1
 324 812 l 1
 452 897 l 1
EndSplineSet
EndChar
StartChar: lcaron
Encoding: 318 318 137
Width: 316
Flags: MW
HStem: -5 21G<11 11> 662 20G<350 350>
LayerCount: 2
Back
Fore
SplineSet
153 661 m 1
 248 679 l 1
 106 12 l 1
 11 -5 l 1
 153 661 l 1
350 682 m 1
 429 627 l 1
 291 437 l 1
 228 485 l 1
 295 571 l 1
 257 595 l 1
 350 682 l 1
EndSplineSet
EndChar
StartChar: Lslash
Encoding: 321 321 118
Width: 575
Flags: MW
HStem: -2 21G<62 62> 13 103 663 20G<306 306>
LayerCount: 2
Back
Fore
SplineSet
490 29 m 1x60
 62 -2 l 1xa0
 116 254 l 1
 79 234 l 1
 40 318 l 1
 142 374 l 1
 204 665 l 1
 306 683 l 1
 253 435 l 1
 293 457 l 1
 328 374 l 1
 228 318 l 1
 183 104 l 1
 505 128 l 1
 490 29 l 1x60
EndSplineSet
EndChar
StartChar: lslash
Encoding: 322 322 135
Width: 292
Flags: MW
HStem: -5 21G<35 35> 659 20G<277 277>
LayerCount: 2
Back
Fore
SplineSet
296 365 m 1
 198 310 l 1
 135 12 l 1
 35 -5 l 1
 89 248 l 1
 53 228 l 1
 14 310 l 1
 114 365 l 1
 177 661 l 1
 277 679 l 1
 223 425 l 1
 262 447 l 1
 296 365 l 1
EndSplineSet
EndChar
StartChar: Nacute
Encoding: 323 323 165
Width: 641
Flags: MW
HStem: -4 21G<6 6> 886 20G<494 494>
LayerCount: 2
Back
Fore
SplineSet
289 772 m 1
 494 906 l 1
 565 831 l 1
 349 710 l 1
 289 772 l 1
549 668 m 1
 649 686 l 1
 507 16 l 1
 409 -3 l 1
 206 489 l 1
 106 15 l 1
 6 -4 l 1
 146 660 l 1
 239 685 l 1
 447 184 l 1
 549 668 l 1
EndSplineSet
EndChar
StartChar: nacute
Encoding: 324 324 197
Width: 562
Flags: MW
HStem: -5 21G<5 5 324 324> 406 95<340 365> 711 20G<446 446>
VStem: 389 98
LayerCount: 2
Back
Fore
SplineSet
245 600 m 1
 446 731 l 1
 514 658 l 1
 303 540 l 1
 245 600 l 1
324 -5 m 1
 359 157 l 2
 377 239 389 300 389 343 c 0
 389 380 379 406 351 406 c 0
 319 406 275 394 217 319 c 0
 179 266 144 193 131 135 c 2
 104 13 l 1
 5 -5 l 1
 110 489 l 1
 210 507 l 1
 189 408 l 1
 240 464 307 501 373 501 c 0
 445 501 485 463 487 386 c 0
 488 326 470 249 446 127 c 2
 424 15 l 1
 324 -5 l 1
EndSplineSet
EndChar
StartChar: Ncaron
Encoding: 327 327 166
Width: 641
Flags: MW
HStem: -4 21G<6 6> 877 20G<357 357 559 559>
LayerCount: 2
Back
Fore
SplineSet
559 897 m 1
 603 824 l 1
 403 701 l 1
 278 830 l 1
 357 897 l 1
 430 812 l 1
 559 897 l 1
549 668 m 1
 649 686 l 1
 507 16 l 1
 409 -3 l 1
 206 489 l 1
 106 15 l 1
 6 -4 l 1
 146 660 l 1
 239 685 l 1
 447 184 l 1
 549 668 l 1
EndSplineSet
EndChar
StartChar: ncaron
Encoding: 328 328 198
Width: 562
Flags: MW
HStem: -5 21G<5 5 324 324> 406 95<340 365> 702 20G<297 297 494 494>
VStem: 389 98
LayerCount: 2
Back
Fore
SplineSet
494 722 m 1
 536 652 l 1
 341 532 l 1
 219 657 l 1
 297 722 l 1
 368 639 l 1
 494 722 l 1
324 -5 m 1
 359 157 l 2
 377 239 389 300 389 343 c 0
 389 380 379 406 351 406 c 0
 319 406 275 394 217 319 c 0
 179 266 144 193 131 135 c 2
 104 13 l 1
 5 -5 l 1
 110 489 l 1
 210 507 l 1
 189 408 l 1
 240 464 307 501 373 501 c 0
 445 501 485 463 487 386 c 0
 488 326 470 249 446 127 c 2
 424 15 l 1
 324 -5 l 1
EndSplineSet
EndChar
StartChar: Ohungarumlaut
Encoding: 336 336 169
Width: 686
Flags: MW
HStem: 0 95<239.5 334 239.5 345> 589 95<358.5 455> 886 20G<433 433 652 652>
VStem: 60 98<207 341.5 207 350> 539 100<338.5 468>
LayerCount: 2
Back
Fore
SplineSet
228 772 m 1
 433 906 l 1
 493 831 l 1
 287 710 l 1
 228 772 l 1
447 772 m 1
 652 906 l 1
 713 831 l 1
 496 710 l 1
 447 772 l 1
257 0 m 0
 133 0 60 101 60 234 c 0
 60 466 265 684 441 684 c 0
 564 684 639 583 639 449 c 0
 639 217 433 0 257 0 c 0
415 589 m 0
 302 589 158 431 158 252 c 0
 158 162 202 95 277 95 c 0
 391 95 539 254 539 423 c 0
 539 513 495 589 415 589 c 0
EndSplineSet
EndChar
StartChar: ohungarumlaut
Encoding: 337 337 201
Width: 581
Flags: MW
HStem: 0 89<191.5 257.5 191.5 269.5> 411 89<270 337> 711 20G<361 361 580 580>
VStem: 37 99<163.5 247.5 163.5 260.5> 396 101<247 332>
LayerCount: 2
Back
Fore
SplineSet
200 0 m 0
 100 0 37 76 37 177 c 0
 37 344 194 500 334 500 c 0
 433 500 497 422 497 322 c 0
 497 154 339 0 200 0 c 0
311 411 m 0
 229 411 136 302 136 193 c 0
 136 134 165 89 218 89 c 0
 297 89 396 193 396 301 c 0
 396 363 363 411 311 411 c 0
155 597 m 1
 361 731 l 1
 421 656 l 1
 215 535 l 1
 155 597 l 1
374 597 m 1
 580 731 l 1
 641 656 l 1
 424 535 l 1
 374 597 l 1
EndSplineSet
EndChar
StartChar: OE
Encoding: 338 338 223
Width: 1119
Flags: MW
HStem: 0 99<484 484 583 937 463 484> 304 98<647 963 626 1013> 582 99<685 1068 685 685> 664 20G<360.5 478>
VStem: 67 98<207 341.5 207 351>
LayerCount: 2
Back
Fore
SplineSet
583 99 m 1xe8
 993 99 l 1
 937 0 l 1
 463 0 l 1
 484 99 l 1
 419 38 339 0 265 0 c 0
 141 0 67 102 67 235 c 0
 67 467 272 684 449 684 c 0xd8
 507 684 558 663 594 619 c 1
 607 681 l 1
 1106 681 l 1
 1068 582 l 1
 685 582 l 1
 647 402 l 1
 1013 402 l 1
 963 304 l 1
 626 304 l 1
 583 99 l 1xe8
285 95 m 0
 426 95 546 291 546 423 c 0
 546 513 501 589 422 589 c 0
 310 589 165 431 165 252 c 0
 165 162 209 95 285 95 c 0
EndSplineSet
EndChar
StartChar: oe
Encoding: 339 339 224
Width: 937
Flags: MW
HStem: 0 92<588 625.5> 411 91
VStem: 44 99<163 247 163 260.5>
LayerCount: 2
Back
Fore
SplineSet
612 92 m 0
 653 92 701 115 749 156 c 1
 801 93 l 1
 733 33 658 0 593 0 c 0
 511 0 448 43 416 107 c 1
 360 43 283 0 208 0 c 0
 107 0 44 76 44 177 c 0
 44 344 202 500 342 500 c 0
 409 500 463 467 488 406 c 1
 544 465 620 502 699 502 c 0
 778 502 842 427 849 338 c 1
 849 338 611 212 503 158 c 1
 522 122 564 92 612 92 c 0
226 89 m 0
 319 89 404 212 404 301 c 0
 404 363 371 411 318 411 c 0
 237 411 143 302 143 192 c 0
 143 134 172 89 226 89 c 0
494 247 m 1
 746 375 l 1
 732 396 706 410 680 410 c 0
 590 410 512 334 494 247 c 1
EndSplineSet
EndChar
StartChar: Racute
Encoding: 340 340 148
Width: 620
Flags: MW
HStem: -13 21G<426 426> 232 90<173 234.5> 587 100<229 340.5 229 340.5> 886 20G<448 448>
VStem: 480 102<466.5 512.5>
LayerCount: 2
Back
Fore
SplineSet
243 772 m 1
 448 906 l 1
 519 831 l 1
 302 710 l 1
 243 772 l 1
229 587 m 1
 173 322 l 1
 360 332 480 398 480 484 c 0
 480 541 424 587 244 587 c 2
 229 587 l 1
273 224 m 0
 262 230 243 232 226 232 c 0
 209 232 178 229 151 225 c 1
 106 12 l 1
 4 -5 l 1
 150 678 l 1
 189 682 243 687 276 687 c 0
 405 687 582 662 582 514 c 0
 582 419 508 326 388 273 c 1
 429 233 480 163 516 52 c 1
 426 -13 l 1
 378 143 312 202 273 224 c 0
EndSplineSet
EndChar
StartChar: rcaron
Encoding: 345 345 204
Width: 428
Flags: MW
HStem: -5 21G<2 2> 407 95<276.5 364.5> 702 20G<240 240 438 438>
LayerCount: 2
Back
Fore
SplineSet
438 722 m 1
 480 652 l 1
 285 532 l 1
 163 657 l 1
 240 722 l 1
 311 639 l 1
 438 722 l 1
420 415 m 2
 407 356 l 1
 308 340 l 1
 315 365 318 380 318 390 c 0
 318 398 315 407 304 407 c 0
 249 407 170 328 154 252 c 2
 103 12 l 1
 2 -5 l 1
 107 489 l 1
 208 507 l 1
 193 435 l 1
 234 471 286 502 340 502 c 0
 389 502 422 472 422 431 c 0
 422 426 421 420 420 415 c 2
EndSplineSet
EndChar
StartChar: Sacute
Encoding: 346 346 121
Width: 625
Flags: MW
HStem: -1 96<242 305.5> 588 93<371.5 419.5> 886 20G<501 501>
VStem: 136 109<471.5 529 471.5 540.5> 431 108<180.5 231> 505 100<548 549.5>
LayerCount: 2
Back
Fore
SplineSet
296 772 m 1xf8
 501 906 l 1
 572 831 l 1
 355 710 l 1
 296 772 l 1xf8
313 308 m 0
 228 331 136 380 136 468 c 0
 136 613 286 681 419 681 c 0
 504 681 605 652 605 558 c 0
 605 538 608 537 589 488 c 1
 486 470 l 1
 506 499 505 523 505 525 c 0xf4
 505 574 440 588 399 588 c 0
 344 588 245 568 245 490 c 0
 245 453 284 428 358 406 c 0
 479 370 539 315 539 237 c 0
 539 75 360 -1 251 -1 c 0
 131 -1 45 73 32 184 c 1
 139 200 l 1
 150 128 213 95 271 95 c 0
 350 95 431 144 431 217 c 0
 431 245 414 279 313 308 c 0
EndSplineSet
EndChar
StartChar: Scedilla
Encoding: 350 350 125
Width: 625
Flags: MW
HStem: -196 57<211 226.5 211 235> -1 96<252 252> 588 93<371.5 419.5>
VStem: 136 109<471.5 529 471.5 540.5> 251 69<-119 -103.5> 431 108<180.5 231> 505 100<548 549.5>
LayerCount: 2
Back
Fore
SplineSet
313 308 m 0xfc
 228 331 136 380 136 468 c 0
 136 613 286 681 419 681 c 0
 504 681 605 652 605 558 c 0
 605 538 608 537 589 488 c 1
 486 470 l 1
 506 499 505 523 505 525 c 0xfa
 505 574 440 588 399 588 c 0
 344 588 245 568 245 490 c 0
 245 453 284 428 358 406 c 0
 479 370 539 315 539 237 c 0
 539 75 361 0 252 -1 c 1
 244 -33 l 1
 289 -37 320 -54 320 -94 c 0
 320 -159 264 -196 206 -196 c 0
 175 -196 155 -186 138 -157 c 1
 189 -123 l 1
 193 -132 204 -139 218 -139 c 0
 235 -139 251 -128 251 -110 c 0
 251 -97 242 -90 224 -90 c 0
 217 -90 206 -93 200 -98 c 1
 167 -54 l 1
 199 4 l 1
 106 22 43 90 32 184 c 1
 139 200 l 1
 150 128 213 95 271 95 c 0
 350 95 431 144 431 217 c 0
 431 245 414 279 313 308 c 0xfc
EndSplineSet
EndChar
StartChar: scedilla
Encoding: 351 351 142
Width: 486
Flags: MW
HStem: -196 57<151 166.5 151 175> 0 91<192 193 193 193> 417 88<260 301.5>
VStem: 90 100<349 373 349 405.5> 191 69<-119 -103.5> 299 99<139 172.5> 351 94<377.5 449>
LayerCount: 2
Back
Fore
SplineSet
221 219 m 0xfc
 157 237 90 268 90 338 c 0
 90 473 233 505 287 505 c 0
 366 505 445 488 445 410 c 0
 445 394 443 374 430 347 c 1
 333 329 l 1
 350 357 351 375 351 380 c 0xfa
 351 407 316 417 287 417 c 0
 217 417 190 386 190 360 c 0
 190 338 215 324 263 310 c 0
 354 283 398 242 398 184 c 0
 398 46 256 5 192 0 c 1
 193 0 l 1
 184 -33 l 1
 229 -37 260 -54 260 -94 c 0
 260 -159 204 -196 146 -196 c 0
 115 -196 95 -186 78 -157 c 1
 129 -123 l 1
 133 -132 144 -139 158 -139 c 0
 175 -139 191 -128 191 -110 c 0
 191 -97 182 -90 164 -90 c 0
 157 -90 146 -93 140 -98 c 1
 107 -54 l 1
 139 4 l 1
 70 19 23 77 17 151 c 1
 114 167 l 1
 119 116 158 91 200 91 c 0
 259 91 299 122 299 156 c 0
 299 189 264 206 221 219 c 0xfc
EndSplineSet
EndChar
StartChar: scaron
Encoding: 353 353 141
Width: 486
Flags: MW
HStem: 0 91<179 209.5> 417 88<260 301.5> 712 20G<256 256 453 453>
VStem: 90 100<349 373 349 405.5> 299 99<139 172.5> 351 94<377.5 449>
LayerCount: 2
Back
Fore
SplineSet
453 732 m 1xf8
 495 657 l 1
 299 532 l 1
 177 662 l 1
 256 732 l 1
 327 649 l 1
 453 732 l 1xf8
221 219 m 0
 157 237 90 268 90 338 c 0
 90 473 233 505 287 505 c 0
 366 505 445 488 445 410 c 0
 445 394 443 374 430 347 c 1
 333 329 l 1
 350 357 351 375 351 380 c 0xf4
 351 407 316 417 287 417 c 0
 217 417 190 386 190 360 c 0
 190 338 215 324 263 310 c 0
 354 283 398 242 398 184 c 0
 398 38 238 0 181 0 c 0
 96 0 23 55 17 151 c 1
 114 167 l 1
 119 116 158 91 200 91 c 0
 259 91 299 122 299 156 c 0
 299 189 264 206 221 219 c 0
EndSplineSet
EndChar
StartChar: uni0162
Encoding: 354 354 178
Width: 548
Flags: MW
HStem: -247 21G<143 143> 582 99<98 276 77 611 376 376 376 590>
LayerCount: 2
Back
Fore
SplineSet
151 -5 m 1
 276 582 l 1
 77 582 l 1
 98 681 l 1
 611 681 l 1
 590 582 l 1
 376 582 l 1
 255 12 l 1
 151 -5 l 1
200 -16 m 1
 291 -62 l 1
 143 -247 l 1
 66 -198 l 1
 134 -119 l 1
 95 -95 l 1
 200 -16 l 1
EndSplineSet
EndChar
StartChar: uni0163
Encoding: 355 355 210
Width: 399
Flags: MW
HStem: -247 21G<73 73> 406 96<68 173 48 193 291 396 68 271> 640 20G<325 325>
LayerCount: 2
Back
Fore
SplineSet
416 502 m 1
 396 406 l 1
 271 406 l 1
 187 12 l 1
 85 -5 l 1
 173 406 l 1
 48 406 l 1
 68 502 l 1
 193 502 l 1
 223 644 l 1
 325 660 l 1
 291 502 l 1
 416 502 l 1
130 -16 m 1
 221 -62 l 1
 73 -247 l 1
 -4 -198 l 1
 64 -119 l 1
 25 -95 l 1
 130 -16 l 1
EndSplineSet
EndChar
StartChar: Tcaron
Encoding: 356 356 126
Width: 548
Flags: MW
HStem: -5 21G<151 151> 582 99<98 276 77 611 376 376 376 590> 877 20G<308 308 509 509>
LayerCount: 2
Back
Fore
SplineSet
509 897 m 1
 553 824 l 1
 353 701 l 1
 229 830 l 1
 308 897 l 1
 381 812 l 1
 509 897 l 1
151 -5 m 1
 276 582 l 1
 77 582 l 1
 98 681 l 1
 611 681 l 1
 590 582 l 1
 376 582 l 1
 255 12 l 1
 151 -5 l 1
EndSplineSet
EndChar
StartChar: tcaron
Encoding: 357 357 143
Width: 455
Flags: MW
HStem: -5 21G<77 77> 406 96<59 165 39 185 277 383 59 257> 731 20G<461 461>
LayerCount: 2
Back
Fore
SplineSet
461 751 m 1
 538 696 l 1
 415 526 l 1
 342 574 l 1
 409 660 l 1
 371 684 l 1
 461 751 l 1
403 502 m 1
 383 406 l 1
 257 406 l 1
 173 12 l 1
 77 -5 l 1
 165 406 l 1
 39 406 l 1
 59 502 l 1
 185 502 l 1
 215 644 l 1
 311 660 l 1
 277 502 l 1
 403 502 l 1
EndSplineSet
EndChar
StartChar: Uring
Encoding: 366 366 173
Width: 710
Flags: MW
HStem: 0 92<256.5 391.5 256.5 418> 702 84<447.5 473.5 447.5 475.5> 857 85<476 500>
VStem: 73 101<203 286> 331 88<803 825 803 832.5> 529 86<817.5 837.5>
LayerCount: 2
Back
Fore
SplineSet
288 0 m 0
 126 0 73 89 73 226 c 0
 73 346 129 562 152 668 c 1
 255 685 l 1
 236 606 174 364 174 249 c 0
 174 157 206 92 307 92 c 0
 476 92 528 276 560 425 c 0
 576 502 602 633 608 666 c 1
 711 685 l 1
 707 662 682 536 668 467 c 0
 620 240 548 0 288 0 c 0
439 702 m 0
 372 702 331 740 331 792 c 0
 331 873 419 942 509 942 c 0
 578 942 615 900 615 850 c 0
 615 752 512 702 439 702 c 0
488 857 m 0
 464 857 419 840 419 810 c 0
 419 796 436 786 459 786 c 0
 488 786 529 805 529 830 c 0
 529 845 512 857 488 857 c 0
EndSplineSet
EndChar
StartChar: uring
Encoding: 367 367 205
Width: 541
Flags: MW
HStem: -5 90<171 191> 542 84<339.5 365.5 339.5 367.5> 697 85<368 392>
VStem: 43 99<132 145.5> 223 88<643 665 643 672.5> 421 86<657.5 677.5>
LayerCount: 2
Back
Fore
SplineSet
162 286 m 0
 152 238 142 189 142 152 c 0
 142 112 153 85 189 85 c 0
 244 85 306 125 328 143 c 0
 333 147 336 155 339 167 c 2
 408 491 l 1
 510 508 l 1
 405 12 l 1
 300 -4 l 1
 308 36 l 1
 269 14 216 -5 166 -5 c 0
 70 -5 43 48 43 121 c 0
 43 170 55 229 67 286 c 0
 76 328 100 418 128 492 c 1
 231 509 l 1
 223 488 178 359 162 286 c 0
331 542 m 0
 264 542 223 580 223 632 c 0
 223 713 311 782 401 782 c 0
 470 782 507 740 507 690 c 0
 507 592 404 542 331 542 c 0
380 697 m 0
 356 697 311 680 311 650 c 0
 311 636 328 626 351 626 c 0
 380 626 421 645 421 670 c 0
 421 685 404 697 380 697 c 0
EndSplineSet
EndChar
StartChar: Uhungarumlaut
Encoding: 368 368 175
Width: 710
Flags: MW
HStem: 0 92<256.5 391.5 256.5 418> 886 20G<445 445 664 664>
VStem: 73 101<203 286>
LayerCount: 2
Back
Fore
SplineSet
288 0 m 0
 126 0 73 89 73 226 c 0
 73 346 129 562 152 668 c 1
 255 685 l 1
 236 606 174 364 174 249 c 0
 174 157 206 92 307 92 c 0
 476 92 528 276 560 425 c 0
 576 502 602 633 608 666 c 1
 711 685 l 1
 707 662 682 536 668 467 c 0
 620 240 548 0 288 0 c 0
240 772 m 1
 445 906 l 1
 505 831 l 1
 299 710 l 1
 240 772 l 1
459 772 m 1
 664 906 l 1
 725 831 l 1
 508 710 l 1
 459 772 l 1
EndSplineSet
EndChar
StartChar: uhungarumlaut
Encoding: 369 369 207
Width: 564
Flags: MW
HStem: -5 90<171 191> 711 20G<333 333 552 552>
VStem: 43 99<132 145.5>
LayerCount: 2
Back
Fore
SplineSet
127 597 m 1
 333 731 l 1
 393 656 l 1
 187 535 l 1
 127 597 l 1
346 597 m 1
 552 731 l 1
 613 656 l 1
 396 535 l 1
 346 597 l 1
162 286 m 0
 152 238 142 189 142 152 c 0
 142 112 153 85 189 85 c 0
 244 85 306 125 328 143 c 0
 333 147 336 155 339 167 c 2
 408 491 l 1
 510 508 l 1
 405 12 l 1
 300 -4 l 1
 308 36 l 1
 269 14 216 -5 166 -5 c 0
 70 -5 43 48 43 121 c 0
 43 170 55 229 67 286 c 0
 76 328 100 418 128 492 c 1
 231 509 l 1
 223 488 178 359 162 286 c 0
EndSplineSet
EndChar
StartChar: Ydieresis
Encoding: 376 376 225
Width: 654
Flags: MW
HStem: 0 21G<80 193 80 80> 793 20G<434 434 603 603>
LayerCount: 2
Back
Fore
SplineSet
434 813 m 1
 396 689 l 1
 275 674 l 1
 315 798 l 1
 434 813 l 1
603 813 m 1
 565 689 l 1
 444 674 l 1
 484 798 l 1
 603 813 l 1
336 318 m 1
 625 677 l 1
 738 677 l 1
 193 0 l 1
 80 0 l 1
 258 223 l 1
 90 677 l 1
 202 677 l 1
 336 318 l 1
EndSplineSet
EndChar
StartChar: Zacute
Encoding: 377 377 129
Width: 647
Flags: MW
HStem: 0 103<148 502> 578 103<176 509 137 636> 886 20G<524 524>
LayerCount: 2
Back
Fore
SplineSet
319 772 m 1
 524 906 l 1
 595 831 l 1
 378 710 l 1
 319 772 l 1
22 0 m 1
 2 77 l 1
 509 578 l 1
 137 578 l 1
 176 681 l 1
 636 681 l 1
 656 603 l 1
 148 103 l 1
 540 103 l 1
 502 0 l 1
 22 0 l 1
EndSplineSet
EndChar
StartChar: zacute
Encoding: 378 378 144
Width: 479
Flags: MW
HStem: 0 96<131 356> 406 96<110 322 73 453> 711 20G<385 385>
LayerCount: 2
Back
Fore
SplineSet
356 0 m 1
 0 0 l 1
 -19 68 l 1
 322 406 l 1
 73 406 l 1
 110 502 l 1
 453 502 l 1
 471 435 l 1
 131 96 l 1
 393 96 l 1
 356 0 l 1
184 600 m 1
 385 731 l 1
 454 658 l 1
 242 540 l 1
 184 600 l 1
EndSplineSet
EndChar
StartChar: zdotaccent
Encoding: 380 380 147
Width: 479
Flags: MW
HStem: 0 96<131 356> 406 96<110 322 73 453> 652 20G<390 390>
LayerCount: 2
Back
Fore
SplineSet
390 672 m 1
 356 561 l 1
 238 546 l 1
 275 658 l 1
 390 672 l 1
356 0 m 1
 0 0 l 1
 -19 68 l 1
 322 406 l 1
 73 406 l 1
 110 502 l 1
 453 502 l 1
 471 435 l 1
 131 96 l 1
 393 96 l 1
 356 0 l 1
EndSplineSet
EndChar
StartChar: Zcaron
Encoding: 381 381 131
Width: 647
Flags: MW
HStem: 0 103<148 502> 578 103<176 509 137 636> 887 20G<360 360 561 561>
LayerCount: 2
Back
Fore
SplineSet
561 907 m 1
 604 829 l 1
 404 701 l 1
 280 835 l 1
 360 907 l 1
 433 822 l 1
 561 907 l 1
22 0 m 1
 2 77 l 1
 509 578 l 1
 137 578 l 1
 176 681 l 1
 636 681 l 1
 656 603 l 1
 148 103 l 1
 540 103 l 1
 502 0 l 1
 22 0 l 1
EndSplineSet
EndChar
StartChar: zcaron
Encoding: 382 382 146
Width: 479
Flags: MW
HStem: 0 96<131 356> 406 96<110 322 73 453> 712 20G<251 251 447 447>
LayerCount: 2
Back
Fore
SplineSet
447 732 m 1
 488 657 l 1
 290 522 l 1
 172 662 l 1
 251 732 l 1
 322 649 l 1
 447 732 l 1
356 0 m 1
 0 0 l 1
 -19 68 l 1
 322 406 l 1
 73 406 l 1
 110 502 l 1
 453 502 l 1
 471 435 l 1
 131 96 l 1
 393 96 l 1
 356 0 l 1
EndSplineSet
EndChar
StartChar: caron
Encoding: 711 711 139
Width: 526
Flags: MW
HStem: 492 21G<290 290> 682 20G<250 250 447 447>
LayerCount: 2
Back
Fore
SplineSet
447 702 m 1
 488 627 l 1
 290 492 l 1
 171 632 l 1
 250 702 l 1
 321 619 l 1
 447 702 l 1
EndSplineSet
EndChar
StartChar: breve
Encoding: 728 728 117
Width: 526
Flags: MW
HStem: 508 88<308.5 341.5> 666 20G<438 438>
LayerCount: 2
Back
Fore
SplineSet
322 596 m 0
 368 596 405 629 438 686 c 1
 489 622 l 1
 451 555 375 508 308 508 c 0
 235 508 182 552 167 617 c 1
 240 678 l 1
 263 609 295 596 322 596 c 0
EndSplineSet
EndChar
StartChar: dotaccent
Encoding: 729 729 211
Width: 526
Flags: MW
HStem: 494 21G<238 238> 610 20G<392 392>
LayerCount: 2
Back
Fore
SplineSet
392 630 m 1
 356 509 l 1
 238 494 l 1
 277 616 l 1
 392 630 l 1
EndSplineSet
EndChar
StartChar: ogonek
Encoding: 731 731 134
Width: 526
Flags: MW
HStem: -196 84<254.5 265.5> 54 20G<357 357>
VStem: 143 94<-97 -91 -97 -78>
LayerCount: 2
Back
Fore
SplineSet
383 18 m 1
 290 -34 l 2
 271 -45 238 -64 237 -91 c 0
 237 -103 248 -112 261 -112 c 0
 282 -112 307 -98 340 -75 c 1
 379 -131 l 1
 346 -164 288 -196 243 -196 c 0
 184 -196 143 -170 143 -119 c 0
 143 -37 215 0 272 30 c 2
 357 74 l 1
 383 18 l 1
EndSplineSet
EndChar
StartChar: hungarumlaut
Encoding: 733 733 145
Width: 526
Flags: MW
HStem: 510 21G<145 145 351 351> 691 20G<289 289 505 505>
LayerCount: 2
Back
Fore
SplineSet
87 570 m 1
 289 711 l 1
 347 638 l 1
 145 510 l 1
 87 570 l 1
302 570 m 1
 505 711 l 1
 564 638 l 1
 351 510 l 1
 302 570 l 1
EndSplineSet
EndChar
StartChar: endash
Encoding: 8211 8211 92
Width: 622
Flags: MW
HStem: 202 94<87 502 51 540>
LayerCount: 2
Back
Fore
SplineSet
502 202 m 1
 51 202 l 1
 87 296 l 1
 540 296 l 1
 502 202 l 1
EndSplineSet
EndChar
StartChar: emdash
Encoding: 8212 8212 73
Width: 903
Flags: MW
HStem: 202 96<95 765 57 803>
LayerCount: 2
Back
Fore
SplineSet
765 202 m 1
 57 202 l 1
 95 298 l 1
 803 298 l 1
 765 202 l 1
EndSplineSet
EndChar
StartChar: quoteleft
Encoding: 8216 8216 84
Width: 208
Flags: MW
HStem: 489 21G<152 152> 715 20G<212 212>
LayerCount: 2
Back
Fore
SplineSet
152 489 m 1
 64 545 l 1
 212 735 l 1
 286 687 l 1
 218 600 l 1
 256 577 l 1
 152 489 l 1
EndSplineSet
EndChar
StartChar: quoteright
Encoding: 8217 8217 67
Width: 208
Flags: MW
HStem: 487 21G<137 137> 712 20G<196 196>
LayerCount: 2
Back
Fore
SplineSet
196 732 m 1
 283 677 l 1
 137 487 l 1
 62 535 l 1
 129 621 l 1
 93 645 l 1
 196 732 l 1
EndSplineSet
EndChar
StartChar: quotedblleft
Encoding: 8220 8220 91
Width: 374
Flags: MW
HStem: 489 21G<135 135 326 326> 715 20G<196 196 387 387>
LayerCount: 2
Back
Fore
SplineSet
326 489 m 1
 239 545 l 1
 387 735 l 1
 461 687 l 1
 393 600 l 1
 431 577 l 1
 326 489 l 1
135 489 m 1
 48 545 l 1
 196 735 l 1
 270 687 l 1
 202 600 l 1
 240 577 l 1
 135 489 l 1
EndSplineSet
EndChar
StartChar: quotedblright
Encoding: 8221 8221 66
Width: 374
Flags: MW
HStem: 487 21G<121 121 312 312> 712 20G<180 180 371 371>
LayerCount: 2
Back
Fore
SplineSet
180 732 m 1
 267 677 l 1
 121 487 l 1
 46 535 l 1
 113 621 l 1
 77 645 l 1
 180 732 l 1
371 732 m 1
 458 677 l 1
 312 487 l 1
 237 535 l 1
 304 621 l 1
 267 645 l 1
 371 732 l 1
EndSplineSet
EndChar
StartChar: bullet
Encoding: 8226 8226 78
Width: 404
Flags: MW
HStem: 149 207<182 204.5>
VStem: 87 210<243.5 264.5>
LayerCount: 2
Back
Fore
SplineSet
297 275 m 0
 297 212 239 149 170 149 c 0
 120 149 87 185 87 231 c 0
 87 298 150 356 214 356 c 0
 264 356 297 321 297 275 c 0
EndSplineSet
EndChar
StartChar: ellipsis
Encoding: 8230 8230 69
Width: 760
Flags: MW
HStem: -4 21G<10 10 243 243 476 476> 113 20G<165 165 398 398 631 631>
LayerCount: 2
Back
Fore
SplineSet
165 133 m 1
 127 12 l 1
 10 -4 l 1
 50 118 l 1
 165 133 l 1
398 133 m 1
 360 12 l 1
 243 -4 l 1
 282 118 l 1
 398 133 l 1
631 133 m 1
 593 12 l 1
 476 -4 l 1
 515 118 l 1
 631 133 l 1
EndSplineSet
EndChar
StartChar: guilsinglleft
Encoding: 8249 8249 110
Width: 430
Flags: MW
HStem: 49 21G<230 230> 435 20G<334 334>
LayerCount: 2
Back
Fore
SplineSet
230 49 m 1
 51 251 l 1
 334 455 l 1
 380 384 l 1
 193 248 l 1
 309 119 l 1
 230 49 l 1
EndSplineSet
EndChar
StartChar: guilsinglright
Encoding: 8250 8250 64
Width: 430
Flags: MW
HStem: 51 21G<94 94> 437 20G<163 163>
LayerCount: 2
Back
Fore
SplineSet
94 51 m 1
 43 121 l 1
 215 252 l 1
 87 386 l 1
 163 457 l 1
 359 253 l 1
 94 51 l 1
EndSplineSet
EndChar
StartChar: Euro
Encoding: 8364 8364 75
Width: 689
Flags: MW
HStem: 0 95<332.5 388.5> 227 88<84 129 49 142 84 224 234 422> 370 87<115 161 79 205 115 255 305 471> 579 95<456 512>
LayerCount: 2
Back
Fore
SplineSet
358 0 m 0
 227 0 128 84 128 206 c 0
 128 213 128 220 129 227 c 1
 49 227 l 1
 84 315 l 1
 142 315 l 1
 148 333 153 352 161 370 c 1
 79 370 l 1
 115 457 l 1
 205 457 l 1
 249 534 371 674 512 674 c 0
 577 674 635 646 678 597 c 1
 597 533 l 1
 572 557 537 579 487 579 c 0
 425 579 348 517 305 457 c 1
 507 457 l 1
 471 370 l 1
 255 370 l 1
 246 352 239 333 234 315 c 1
 457 315 l 1
 422 227 l 1
 224 227 l 1
 232 145 293 95 372 95 c 0
 422 95 466 110 507 132 c 1
 562 66 l 1
 493 25 419 0 358 0 c 0
EndSplineSet
EndChar
StartChar: trademark
Encoding: 8482 8482 97
Width: 585
Flags: MW
HStem: 412 21G<252 252> 587 87<97 172 78 364 259 345 259 259> 658 20G<493 493 623 623>
LayerCount: 2
Back
Fore
SplineSet
364 674 m 1xc0
 345 587 l 1
 259 587 l 1
 226 432 l 1
 135 414 l 1
 172 587 l 1
 78 587 l 1
 97 674 l 1
 364 674 l 1xc0
623 678 m 1xa0
 648 430 l 1
 558 417 l 1
 548 514 l 1
 498 429 l 1
 415 415 l 1
 409 514 l 1
 357 429 l 1
 252 412 l 1
 410 664 l 1
 493 678 l 1
 496 585 l 1
 542 665 l 1
 623 678 l 1xa0
EndSplineSet
EndChar
